<?xml version="1.0" standalone="no"?>
<!DOCTYPE svg PUBLIC "-//W3C//DTD SVG 1.1//EN" "http://www.w3.org/Graphics/SVG/1.1/DTD/svg11.dtd" >
<svg xmlns="http://www.w3.org/2000/svg">
<metadata></metadata>
<defs>
<font id="akzidenz_grotesk_be_xbXBdCnIt" horiz-adv-x="1024" >
<font-face units-per-em="2048" ascent="1638" descent="-410" />
<missing-glyph horiz-adv-x="512" />
<glyph horiz-adv-x="0" />
<glyph unicode="&#xd;" horiz-adv-x="0" />
<glyph unicode=" "  horiz-adv-x="512" />
<glyph unicode="&#x09;" horiz-adv-x="512" />
<glyph unicode="&#xa0;" horiz-adv-x="512" />
<glyph unicode="!" horiz-adv-x="598" d="M127 0l72 311h303l-72 -311h-303zM293 469l100 696l68 281h303l-62 -262l-223 -715h-186z" />
<glyph unicode="&#x22;" horiz-adv-x="811" d="M186 1397q0 65 48 101t106 36q52 0 95.5 -31t43.5 -100q0 -13 -4 -33l-108 -534h-64l-113 512q-4 20 -4 49zM614 1397q0 65 48 101t106 36q52 0 95.5 -31t43.5 -100q0 -13 -4 -33l-108 -534h-64l-113 512q-4 20 -4 49z" />
<glyph unicode="#" horiz-adv-x="1366" d="M182 381v252h230l26 196h-205v254h240l51 363h256l-53 -363h205l49 363h256l-49 -363h186v-254h-221l-27 -196h201v-252h-237l-54 -381h-256l54 381h-203l-53 -381h-252l49 381h-193zM666 633h202l29 196h-203z" />
<glyph unicode="$" horiz-adv-x="1067" d="M78 264q0 81 41 236h350q-39 -156 -39 -189q0 -94 107 -94q49 0 75 20.5t37 43.5q16 28 27.5 84.5t11.5 83.5t-13 47t-43 45t-118 92q-119 88 -165 128.5t-65.5 83t-19.5 111.5q0 146 94 334q40 74 86 111t113.5 50.5t173.5 18.5l41 187h162l-45 -195 q126 -21 207.5 -70.5t81.5 -191.5q0 -44 -9.5 -92t-27.5 -121h-332q8 36 13 55.5t11.5 56.5t6.5 48q0 35 -23.5 56.5t-66.5 21.5q-53 0 -80 -27q-26 -24 -43 -83.5t-17 -96.5q0 -36 13.5 -57.5t46.5 -49.5q8 -8 137 -108q83 -63 124.5 -98t67.5 -65.5t39 -67.5t13 -83 q0 -72 -33 -187.5t-80 -178.5q-45 -61 -109.5 -92.5t-126.5 -42t-155 -17.5l-51 -211h-162l51 220q-79 14 -142 37t-114 83t-51 164z" />
<glyph unicode="%" horiz-adv-x="1622" d="M178 713q0 65 27 166l67 295q24 100 50.5 157.5t92 95t187.5 37.5q75 0 129.5 -22t82.5 -65.5t28 -106.5q0 -49 -17 -123l-75 -318q-29 -119 -54.5 -177t-85.5 -95t-170 -37q-87 0 -145 22t-87.5 65t-29.5 106zM379 735q0 -51 65 -51q40 0 57 18t29 66l95 408 q14 67 14 77q0 52 -53 52q-36 0 -54 -9.5t-28 -32t-21 -67.5l-88 -373q-16 -64 -16 -88zM479 0l713 1446h162l-713 -1446h-162zM993 172q0 38 7 76t20 90l67 293q24 100 50.5 158t91.5 95.5t188 37.5q116 0 178 -50.5t62 -144.5q0 -46 -17 -123l-75 -315 q-29 -119 -54 -177.5t-85 -95t-171 -36.5q-262 0 -262 192zM1194 195q0 -52 66 -52q39 0 56.5 18.5t29.5 65.5l94 406q14 67 14 80q0 49 -53 49q-36 0 -54 -9.5t-28 -32t-21 -67.5l-88 -372q-16 -61 -16 -86z" />
<glyph unicode="&#x26;" horiz-adv-x="1366" d="M90 340q0 124 61.5 218t138.5 149.5t169 103.5q-9 40 -15 72.5t-10 67t-4 73.5q0 133 47 219.5t115.5 128.5t135.5 56t124 14q156 0 242 -73.5t86 -197.5q0 -150 -102.5 -247t-266.5 -187q32 -106 150 -288q41 59 66 128t40 177h285q-25 -138 -64 -231.5t-80.5 -150 t-87.5 -104.5q37 -28 78.5 -44.5t122.5 -16.5l-66 -236q-22 0 -34.5 -0.5t-28.5 -1.5q-120 0 -191.5 31t-126.5 76q-45 -22 -106 -46.5t-119.5 -37t-132.5 -12.5q-185 0 -305.5 95.5t-120.5 264.5zM424 362q0 -69 47 -103t123 -34q41 0 64 6t61 21q-64 92 -97.5 153.5 t-80.5 172.5q-117 -106 -117 -216zM731 1069q0 -41 12 -123q77 47 118.5 96.5t41.5 122.5q0 36 -17.5 57t-45.5 21q-43 0 -76 -44t-33 -130z" />
<glyph unicode="'" horiz-adv-x="426" d="M205 1397q0 65 47 101t106 36q53 0 96.5 -31t43.5 -100q0 -13 -4 -33l-109 -534h-63l-113 512q-4 20 -4 49z" />
<glyph unicode="(" horiz-adv-x="725" d="M113 -119q0 91 45 291l219 954q33 142 94.5 211.5t144 90t205.5 20.5q44 0 150 -4l-29 -127q-92 0 -138.5 -11.5t-73 -47.5t-44.5 -117l-283 -1215q-16 -78 -16 -116q0 -63 50 -78t151 -15l-31 -131q-134 0 -223.5 15t-155 80t-65.5 200z" />
<glyph unicode=")" horiz-adv-x="725" d="M-119 -410l29 127q92 0 138.5 11.5t73 48.5t44.5 117l283 1214q16 78 16 117q0 61 -50 76.5t-151 15.5l31 131q134 0 223.5 -15t155 -80t65.5 -200q0 -89 -45 -291l-219 -954q-33 -142 -94.5 -211.5t-144 -90t-205.5 -20.5q-44 0 -150 4z" />
<glyph unicode="*" horiz-adv-x="895" d="M307 1253q2 4 3.5 8.5t2.5 6.5l258 -15l117 215h25l82 -241l241 -45q0 -13 4 -25l-219 -133l35 -252q-3 -2 -8.5 -5t-11.5 -7l-205 162l-228 -111q-9 9 -18 12l92 242z" />
<glyph unicode="+" horiz-adv-x="1366" d="M162 467v260h469v467h260v-467h465v-260h-465v-467h-260v467h-469z" />
<glyph unicode="," horiz-adv-x="512" d="M-25 -315l187 315h-113l72 313h307l-74 -313l-248 -315h-131z" />
<glyph unicode="-" horiz-adv-x="682" d="M143 604l54 236h553l-54 -236h-553z" />
<glyph unicode="." horiz-adv-x="512" d="M45 0l72 313h305l-72 -313h-305z" />
<glyph unicode="/" horiz-adv-x="598" d="M14 0l539 1446h244l-545 -1446h-238z" />
<glyph unicode="0" horiz-adv-x="1067" d="M129 274q0 92 45 291l119 514q51 218 143 295q66 55 159 77t177 22q100 0 186 -27.5t141.5 -95.5t55.5 -183q0 -100 -35 -237l-112 -494q-39 -162 -78 -253t-133 -149.5t-267 -58.5q-198 0 -305 82q-96 76 -96 217zM438 315q0 -59 35 -75.5t68 -16.5q64 0 92.5 44.5 t46.5 125.5l158 686q8 28 8 62q0 90 -101 90q-68 0 -93.5 -38t-47.5 -128l-153 -668q-13 -40 -13 -82z" />
<glyph unicode="1" horiz-adv-x="1067" d="M391 0l246 1061q-63 -38 -104 -55.5t-136 -42.5l68 294q139 22 202 67t105 122h268l-333 -1446h-316z" />
<glyph unicode="2" horiz-adv-x="1067" d="M37 0q42 221 88 328t132 183.5t282 201.5q189 119 223 166q27 35 48 119t21 135q0 98 -98 98q-50 0 -76.5 -23t-45.5 -83.5t-52 -206.5h-326q7 23 30.5 117.5t31.5 123.5q28 93 64 154.5t131.5 110.5t267.5 49q67 0 140.5 -12.5t127.5 -41.5q137 -73 137 -243 q0 -96 -55 -293q-28 -81 -55.5 -124.5t-60.5 -72.5t-83 -63q-30 -21 -156 -101.5t-155 -101.5q-71 -52 -96 -83.5t-41 -76.5h549l-60 -260h-913z" />
<glyph unicode="3" horiz-adv-x="1067" d="M113 276q0 69 32 211h318q-35 -130 -35 -192q0 -55 34.5 -73.5t63.5 -18.5q95 0 125 94q11 31 31 126t20 130q0 48 -29 64t-108 16h-102l57 244h117q38 0 63 3t47.5 15t36.5 41q12 22 29.5 99t17.5 118q0 35 -14 53q-25 33 -78 33q-54 0 -82 -24.5t-40.5 -65.5 t-34.5 -150h-318q44 193 74.5 269t93.5 123q112 84 324 84q159 0 274 -66t115 -211q0 -33 -6 -79.5t-18 -94.5t-29 -100q-34 -99 -89.5 -129t-130.5 -37q63 -11 110.5 -43t47.5 -125q0 -18 -9 -77t-26.5 -136t-47.5 -154t-73 -125q-104 -123 -368 -123q-159 0 -258 56 q-75 42 -105 104t-30 141z" />
<glyph unicode="4" horiz-adv-x="1067" d="M49 311l55 240l635 897h424l-209 -905h136l-54 -232h-135l-72 -311h-317l74 311h-537zM373 551h268l86 362q18 76 76 283q-11 -26 -93 -150t-94 -141z" />
<glyph unicode="5" horiz-adv-x="1067" d="M129 276q0 64 27 191h319q-26 -97 -26 -145q0 -45 27 -72t73 -27q47 0 74 22.5t42.5 66.5t30.5 114q47 193 47 248q0 38 -10 51q-9 23 -32 36t-56 13q-89 0 -115 -106h-305l201 780h780l-57 -250h-479l-90 -315q96 104 233 104q124 0 189 -70.5t65 -195.5 q0 -95 -35 -252.5t-78 -251.5q-26 -58 -63 -106.5t-129 -92t-240 -43.5q-190 0 -299 84q-94 73 -94 217z" />
<glyph unicode="6" horiz-adv-x="1067" d="M139 287q0 76 39 250l113 489q33 142 77 235t141 151t271 58q152 0 268.5 -63t116.5 -209q0 -53 -26 -172h-305q24 93 24 115q0 44 -28.5 64t-67.5 20q-59 0 -84 -31.5t-41 -81.5q-17 -57 -27.5 -97t-21.5 -82t-33 -124q43 43 93 69.5t138 26.5q91 0 177 -52t86 -204 q0 -84 -38 -231t-61 -201q-42 -98 -128.5 -169t-289.5 -71q-143 0 -239 48q-80 42 -117 104t-37 158zM449 315q0 -55 28 -74.5t70 -19.5q55 0 80 25t40.5 68.5t40.5 145t25 142.5q0 53 -35 68.5t-69 15.5q-54 0 -82 -34t-45 -87q-15 -41 -34 -128.5t-19 -121.5z" />
<glyph unicode="7" horiz-adv-x="1067" d="M238 1006l102 440h911l-57 -248q-96 -131 -174.5 -251.5t-163.5 -284.5q-103 -202 -149.5 -333t-100.5 -329h-366q61 171 106.5 282.5t120.5 253t178.5 301t257.5 365.5l-336 -4l-45 -192h-284z" />
<glyph unicode="8" horiz-adv-x="1067" d="M129 299q0 72 21 161.5t34 123.5q41 123 96.5 165t139.5 62q-125 44 -125 188q0 68 34 182.5t91 174.5q30 31 73 56t109.5 41.5t153.5 16.5q93 0 163.5 -19t114.5 -50q67 -44 93 -104t26 -130q0 -51 -15 -131.5t-60.5 -159t-129.5 -100.5q-24 -8 -39 -8q5 -2 15.5 -5.5 t21.5 -10.5q86 -48 86 -179q0 -38 -14 -109t-38 -154.5t-38 -114.5q-44 -96 -133 -158t-258 -62q-102 0 -196.5 25t-160 97.5t-65.5 201.5zM438 309q0 -39 17 -59q25 -39 86 -39q59 0 85 33t40 75q51 204 51 254q0 86 -113 86q-54 0 -76 -29.5t-39 -84.5q-51 -186 -51 -236z M590 956q0 -45 31 -69.5t79 -24.5q60 0 95 49q19 31 36 112.5t17 115.5q0 88 -109 88q-36 0 -57.5 -13.5t-33 -33.5t-23.5 -54q-13 -41 -24 -92.5t-11 -77.5z" />
<glyph unicode="9" horiz-adv-x="1067" d="M125 246q0 56 25 176h307q-25 -80 -25 -115q0 -84 92 -84q59 0 87 32t46 101q9 30 22.5 80.5t30 113.5t23.5 91q-82 -98 -229 -98q-85 0 -174.5 50.5t-89.5 201.5q0 56 24 176q34 148 60 225t76 141.5t137 100t221 35.5q67 0 135 -15t117 -43q49 -25 95 -80.5t46 -169.5 q0 -35 -4 -72t-14 -85l-134 -572q-40 -179 -81.5 -256.5t-108.5 -122.5q-119 -82 -295 -82q-143 0 -266 62t-123 209zM555 850q0 -56 34 -73t64 -17q88 0 123 94q12 30 28 90.5t27 112t11 71.5q0 99 -107 99q-59 0 -83 -32.5t-40 -88.5q-15 -44 -36 -134.5t-21 -121.5z" />
<glyph unicode=":" horiz-adv-x="598" d="M127 0l72 313h305l-72 -313h-305zM311 797l72 313h307l-72 -313h-307z" />
<glyph unicode=";" horiz-adv-x="598" d="M61 -317l187 317h-115l72 313h309l-72 -313l-247 -317h-134zM317 797l72 313h309l-73 -313h-308z" />
<glyph unicode="&#x3c;" horiz-adv-x="1366" d="M76 592v254l1366 606v-285l-1002 -448l1002 -440v-285z" />
<glyph unicode="=" horiz-adv-x="1366" d="M80 254v260h1366v-260h-1366zM80 680v260h1366v-260h-1366z" />
<glyph unicode="&#x3e;" horiz-adv-x="1366" d="M131 -6v285l1002 440l-1002 448v285l1366 -606v-254z" />
<glyph unicode="?" horiz-adv-x="938" d="M205 0l71 313h308l-74 -313h-305zM293 1036q26 111 44 179t36 102.5t49 64.5q55 52 145 72.5t183 20.5q360 0 360 -261q0 -43 -14 -105.5t-31 -113.5q-21 -57 -57.5 -93t-149.5 -114q-83 -56 -124.5 -88.5t-60.5 -58.5t-28.5 -60t-23.5 -108h-308q31 132 46 184.5 t35.5 85t66.5 70.5q17 14 95 66t126.5 86.5t62.5 50.5q28 31 44 78.5t16 89.5q0 35 -19.5 55.5t-56.5 20.5q-44 0 -65.5 -18t-33.5 -56t-38 -150h-299z" />
<glyph unicode="@" horiz-adv-x="1835" d="M217 481q0 265 125 490t341.5 356t475.5 131q141 0 256 -44.5t193 -124.5t119.5 -188t41.5 -239q0 -185 -68 -353t-181.5 -271t-237.5 -103q-156 0 -184 141q-114 -139 -258 -139q-125 0 -205 91.5t-80 250.5q0 146 58 284.5t160 224t226 85.5q90 0 137 -36t81 -87l18 80 h186l-69 -325q-56 -275 -56 -334q0 -62 39 -62q48 0 111 79t107 205.5t44 260.5q0 154 -65.5 253.5t-170 144t-220.5 44.5q-146 0 -282 -62.5t-244 -175t-170 -260.5t-62 -313q0 -161 58 -273.5t151.5 -179t201.5 -95.5t212 -29q128 0 243 34.5t219 100.5t203 164l96 -127 q-156 -145 -332.5 -239.5t-426.5 -94.5q-126 0 -262 38.5t-256.5 124.5t-196.5 229.5t-76 342.5zM768 496q0 -112 46 -144.5t83 -32.5q62 0 120.5 57.5t95 150t36.5 190.5q0 73 -37 122.5t-102 49.5q-70 0 -126 -62t-86 -154t-30 -177z" />
<glyph unicode="A" horiz-adv-x="1110" d="M-27 0l621 1446h563l-104 -1446h-344l30 322h-268l-123 -322h-375zM565 569h197l65 744z" />
<glyph unicode="B" horiz-adv-x="1110" d="M43 0l332 1446h416q138 0 227 -12t152 -62.5t63 -159.5q0 -53 -16 -131.5t-31 -126.5q-20 -59 -49.5 -93.5t-76.5 -54.5t-128 -32q74 -18 126 -56t52 -128q0 -53 -34.5 -206.5t-65.5 -219.5q-42 -89 -128.5 -126.5t-224.5 -37.5h-614zM453 254h151q71 0 95 30.5t40 102.5 l29 123q6 18 6 45q0 70 -100 70h-137zM594 870h125q67 0 103 21.5t52 89.5l23 96q4 26 4 37q0 48 -29.5 60t-87.5 12h-116z" />
<glyph unicode="C" horiz-adv-x="1067" d="M100 258q0 68 33 203l139 608q32 140 70.5 209t91.5 108q112 84 348 84q171 0 271 -43q155 -67 155 -249q0 -47 -12 -103l-43 -178h-336l39 170q6 21 6 47q0 92 -108 92q-56 0 -79 -21.5t-38 -64.5l-172 -741q-12 -50 -12 -76q0 -47 32 -63.5t68 -16.5q58 0 84 27t39 63 q28 83 59 232h359l-52 -209q-34 -139 -84.5 -215.5t-150 -113t-272.5 -36.5q-154 0 -248 37q-74 31 -130.5 91t-56.5 159z" />
<glyph unicode="D" horiz-adv-x="1110" d="M45 0l334 1448h405q164 0 253.5 -13t146.5 -66.5t57 -166.5q0 -59 -16 -137l-164 -713q-24 -106 -50 -170.5t-67.5 -104.5t-109 -58.5t-172.5 -18.5h-617zM451 242q91 0 111.5 0.5t41.5 3.5q38 5 68.5 30.5t48.5 104.5l160 702q4 26 4 37q0 47 -26 63.5t-77 16.5h-110z " />
<glyph unicode="E" horiz-adv-x="895" d="M41 0l334 1446h727l-58 -250h-374l-76 -328h356l-55 -245h-358l-84 -369h409l-57 -254h-764z" />
<glyph unicode="F" horiz-adv-x="854" d="M45 0l334 1446h725l-55 -246h-379l-76 -330h364l-57 -247h-364l-144 -623h-348z" />
<glyph unicode="G" horiz-adv-x="1110" d="M88 231q0 66 14.5 140.5t38.5 181.5q9 36 24 96.5t28.5 118.5t29 121t35.5 147q37 156 77 241.5t140 141.5t285 56q142 0 246 -37q103 -39 147.5 -105t44.5 -133q0 -43 -16 -113l-35 -151h-336l35 147q4 26 4 39q0 51 -28.5 68.5t-63.5 17.5q-65 0 -97.5 -39.5 t-50.5 -111.5l-153 -664q-8 -44 -8 -67q0 -36 14 -58q13 -20 40.5 -30.5t51.5 -10.5q66 0 93 38t42 95q10 37 19.5 73.5t21.5 84.5h-141l53 234h473l-172 -752h-334l25 104q2 11 4 18t4 17q-36 -50 -72.5 -84.5t-92 -57t-136.5 -22.5q-117 0 -185.5 65.5t-68.5 190.5z" />
<glyph unicode="H" horiz-adv-x="1151" d="M43 0l334 1448h352l-135 -590h240l135 590h352l-336 -1448h-350l141 608h-239l-142 -608h-352z" />
<glyph unicode="I" horiz-adv-x="555" d="M43 0l334 1446h350l-334 -1446h-350z" />
<glyph unicode="J" horiz-adv-x="768" d="M35 0l59 260h99q83 0 120 39t56 131l227 1016h352l-243 -1055q-23 -105 -50 -175.5t-73.5 -118t-127.5 -72.5t-204 -25h-215z" />
<glyph unicode="K" horiz-adv-x="1110" d="M43 0l334 1446h348l-150 -639l406 639h373l-467 -670l178 -776h-358l-138 776l-178 -776h-348z" />
<glyph unicode="L" horiz-adv-x="811" d="M45 0l334 1446h350l-276 -1200h370l-57 -246h-721z" />
<glyph unicode="M" horiz-adv-x="1579" d="M45 0l334 1446h483l-14 -408q0 -26 -0.5 -48.5t-1.5 -65.5t-2.5 -84t-1.5 -58q-2 -41 -5.5 -105.5t-8 -130.5t-7.5 -120q19 43 49 114t54 128q65 157 94 223l246 555h481l-334 -1446h-326l273 1073l-481 -1073h-293l10 1073l-223 -1073h-326z" />
<glyph unicode="N" horiz-adv-x="1151" d="M45 0l334 1446h340q39 -301 51 -398t24.5 -213t28.5 -286q33 203 41.5 249t46.5 230q20 94 31.5 148t21 99t35.5 171h322l-336 -1446h-336l-51 416q-4 35 -13.5 110.5t-16.5 140.5t-11 113.5t-10 110.5l-176 -891h-326z" />
<glyph unicode="O" horiz-adv-x="1110" d="M115 295q0 72 24 180l133 559q38 154 79.5 239t144 141t288.5 56q85 0 175.5 -16.5t150.5 -58.5q113 -81 113 -238q0 -96 -54 -317l-114 -488q-35 -144 -92 -226.5t-155 -119.5t-259 -37q-179 0 -306.5 72t-127.5 254zM461 315q0 -84 106 -84q46 0 74 22t44.5 62.5 t35.5 114.5q25 96 73 298t58 245q31 120 31 145q0 43 -26 67.5t-75 24.5q-60 0 -84 -24t-36 -64q-26 -94 -55 -203.5t-56.5 -217.5t-58.5 -237.5t-31 -148.5z" />
<glyph unicode="P" horiz-adv-x="1067" d="M45 0l334 1446h543q72 0 136 -12t117.5 -63t53.5 -154q0 -61 -15 -117l-47 -211q-28 -122 -67 -188t-110 -94.5t-195 -28.5h-267l-133 -578h-350zM588 840h137q42 0 70 14.5t47 65.5q9 24 27 101t18 105q0 70 -90 70h-125z" />
<glyph unicode="Q" horiz-adv-x="1110" d="M119 301q0 67 20 158l127 565q29 123 53 192t75.5 129.5t146.5 95t245 34.5q78 0 164.5 -16t147.5 -54q121 -75 121 -240q0 -88 -41 -270l-115 -496q-35 -148 -76.5 -231t-118 -129.5t-206.5 -58.5q-33 -101 -33 -130q0 -37 30.5 -50t90.5 -13q28 0 90 4l-64 -209 q-119 0 -193.5 1.5t-103.5 4.5q-84 11 -126 54.5t-44 107.5q0 23 14.5 77.5t47.5 162.5q-105 30 -178.5 92.5t-73.5 218.5zM461 324q0 -91 108 -91q70 0 98.5 44.5t47.5 132.5l151 649q4 17 7.5 37t3.5 30q0 91 -107 91q-61 0 -84 -32t-43 -108l-174 -694q-8 -42 -8 -59z " />
<glyph unicode="R" horiz-adv-x="1110" d="M43 0l334 1446h422q137 0 221.5 -11.5t142.5 -63.5t58 -161q0 -56 -20 -151t-48 -150q-18 -41 -44.5 -70.5t-63 -50t-68.5 -29.5t-82 -18q192 -35 192 -168q0 -22 -14 -104l-45 -219q-1 -4 -4.5 -22.5t-10.5 -54.5t-9.5 -52.5t-2.5 -28.5q0 -40 18.5 -57.5t45.5 -28.5 v-12l-303 10q-105 3 -105 90q0 25 15 90l53 258q14 73 14 88q0 78 -102 78h-100l-142 -608h-352zM594 864h96q65 2 97 14t53 62q14 31 28.5 103t14.5 90q0 55 -68 61q-20 2 -143 2z" />
<glyph unicode="S" horiz-adv-x="1067" d="M78 258q0 72 43 240h348q-39 -151 -39 -187q0 -94 105 -94q70 0 104 45q21 26 35 82t14 92t-16.5 61.5t-59.5 59.5q-1 1 -137 105q-89 66 -131 103.5t-61 80.5t-19 108q0 84 40.5 206.5t88.5 187.5q43 54 114 88t238 34q209 0 322 -61t113 -209q0 -35 -9 -83.5 t-28 -129.5h-332q31 133 31 156q0 45 -29 63.5t-63 18.5q-72 0 -97 -49q-19 -28 -31 -81t-12 -79q0 -24 5.5 -41t23.5 -36.5t30.5 -29.5t84.5 -65q134 -101 196 -157.5t81.5 -99.5t19.5 -106q0 -40 -11 -86q-18 -108 -52 -186.5t-92 -130.5t-148.5 -77.5t-219.5 -25.5 q-185 0 -317.5 59t-132.5 224z" />
<glyph unicode="T" horiz-adv-x="854" d="M195 0l276 1196h-264l59 250h856l-57 -250h-242l-276 -1196h-352z" />
<glyph unicode="U" horiz-adv-x="1110" d="M106 295q5 103 52 305l200 848h349l-238 -1034q-12 -39 -12 -80q0 -86 106 -86q67 0 97 44.5t49 121.5l237 1034h348l-239 -1034q-32 -139 -77.5 -228.5t-151 -149t-289.5 -59.5q-121 0 -218 31.5t-155 102t-58 184.5z" />
<glyph unicode="V" d="M201 0l65 1446h336l-37 -549q-13 -220 -24 -324t-37 -282q84 269 106 323l308 832h376l-606 -1446h-487z" />
<glyph unicode="W" horiz-adv-x="1663" d="M141 0l129 1446h344l-69 -498q-1 -9 -13.5 -99t-23.5 -167q-27 -191 -66 -365q28 86 70 199l375 930h422l-68 -1108q11 44 17.5 72.5t19 80t27.5 102t32 105.5l246 748h350l-530 -1446h-438q12 300 20 549q2 86 3.5 127.5t7 122.5t9 125t13.5 155q-28 -89 -47 -147 t-36.5 -104t-59 -147t-74.5 -179l-211 -502h-449z" />
<glyph unicode="X" d="M-68 0l463 815l-129 631h346l60 -428l217 428h375l-422 -686l119 -760h-343l-55 545l-258 -545h-373z" />
<glyph unicode="Y" horiz-adv-x="1067" d="M264 1446h342l49 -590l295 590h391l-600 -975l-108 -471h-348l116 500z" />
<glyph unicode="Z" horiz-adv-x="981" d="M-53 0l61 266l729 928h-485l57 254h871l-62 -268l-721 -914h510l-61 -266h-899z" />
<glyph unicode="[" horiz-adv-x="725" d="M4 -418l442 1866h529l-31 -133h-223l-381 -1606h221l-29 -127h-528z" />
<glyph unicode="\" horiz-adv-x="598" d="M268 1446h238l37 -1446h-242z" />
<glyph unicode="]" horiz-adv-x="725" d="M-143 -418l28 127h230l370 1606h-219l31 133h528l-440 -1866h-528z" />
<glyph unicode="^" horiz-adv-x="1493" d="M330 637l415 809h213l398 -809h-283l-225 473l-238 -473h-280z" />
<glyph unicode="_" d="M-82 -154h1065v-102h-1065v102z" />
<glyph unicode="`" horiz-adv-x="512" d="M-33 1495h344l195 -254h-250z" />
<glyph unicode="a" horiz-adv-x="981" d="M37 170q0 61 31.5 172t78.5 166q35 39 87.5 66t146.5 57t315 94q7 27 16 71t9 58q0 61 -88 61q-64 0 -89 -33t-50 -126h-312q38 152 69.5 211t102.5 94q111 57 295 57q166 0 274.5 -53t108.5 -186q0 -49 -18 -123l-146 -631q-2 -16 -4 -28.5t-2 -20.5q0 -30 7 -44.5 t24 -31.5h-373l29 115q-80 -69 -144.5 -106.5t-150.5 -37.5q-66 0 -141.5 37t-75.5 162zM375 252q0 -68 71 -68q37 0 69 17.5t67 48.5l67 264q-166 -49 -207 -82q-34 -28 -50.5 -89.5t-16.5 -90.5z" />
<glyph unicode="b" d="M33 0l334 1446h331l-106 -465q30 40 60.5 69.5t78.5 51.5t115 22q96 0 162.5 -56t66.5 -173q0 -50 -16 -143t-41.5 -208t-36.5 -159q-28 -118 -62 -202t-108.5 -147t-198.5 -63q-53 0 -92.5 16.5t-66.5 43t-40 51.5t-20 39l-28 -123h-332zM432 276q0 -38 24 -59.5 t62 -21.5q44 0 74.5 30.5t42.5 85.5l98 426q15 60 15 84q0 33 -22 57.5t-67 24.5q-86 0 -106 -86l-117 -502q-4 -24 -4 -39z" />
<glyph unicode="c" horiz-adv-x="981" d="M109 264q0 46 15.5 131t42 199t45.5 184.5t21 73.5q56 168 172 219t273 51q116 0 202 -33t132.5 -95t46.5 -150q0 -68 -27 -156h-315q28 110 28 139q0 33 -21 53.5t-60 20.5q-62 0 -88.5 -34.5t-45.5 -108.5l-102 -439q-4 -24 -4 -38q0 -35 12 -50q25 -36 76 -36 q63 0 87 41.5t46 144.5h330q-19 -89 -41.5 -153t-63.5 -117q-39 -50 -97.5 -82t-127 -45t-137.5 -13q-136 0 -267.5 59.5t-131.5 233.5z" />
<glyph unicode="d" d="M90 205q0 72 57 318t72 290q29 99 59.5 160t94.5 106t166 45q72 0 143.5 -32.5t99.5 -108.5l107 463h330l-334 -1446h-330l33 133q-40 -48 -70 -76t-79.5 -51.5t-114.5 -23.5q-77 0 -155.5 47t-78.5 176zM426 266q0 -41 25.5 -60.5t58.5 -19.5q58 0 82.5 42.5t40.5 111.5 l98 424q8 36 8 53q0 41 -21.5 64.5t-64.5 23.5q-55 0 -80 -39.5t-38 -101.5l-95 -410q-14 -56 -14 -88z" />
<glyph unicode="e" d="M111 266q0 71 26 201.5t60.5 259.5t52.5 170q23 56 66.5 106t130 85.5t225.5 35.5q148 0 267.5 -54.5t119.5 -213.5q0 -58 -19 -139q-22 -112 -53 -246h-524q-18 -69 -27.5 -119t-9.5 -82q0 -17 6 -32q23 -41 90 -41q43 0 67 18.5t36 52t24 86.5h334 q-20 -83 -42.5 -142.5t-68.5 -109.5q-114 -131 -366 -131q-70 0 -156.5 18t-148.5 66q-43 35 -66.5 84t-23.5 127zM508 672h211q29 127 29 149q0 35 -17 56q-23 28 -78 28q-49 0 -74.5 -24t-40 -73t-30.5 -136z" />
<glyph unicode="f" horiz-adv-x="641" d="M100 0l207 901h-131l45 197h133l25 106q26 103 50.5 150t91 73.5t202.5 26.5q88 0 192 -6l-47 -201q-92 0 -118.5 -7t-38.5 -36q-8 -17 -29 -106h143l-47 -197h-143l-207 -901h-328z" />
<glyph unicode="g" d="M-14 -223q0 43 18 110h326q-21 -82 -21 -104q0 -76 92 -76q38 0 70 23.5t53 113.5l68 289q-50 -64 -111 -107.5t-155 -43.5q-95 0 -156 53q-68 62 -68 188q0 83 36.5 246t80.5 313q33 110 72.5 182t104 115t161.5 43q72 0 123 -28.5t76.5 -66t25.5 -62.5l33 133h330 l-256 -1110q-35 -151 -63 -229t-85 -136q-116 -119 -354 -119q-136 0 -268.5 51.5t-132.5 221.5zM428 287q0 -88 82 -88q55 0 86 38.5t43 96.5l104 454q5 28 5 33q0 48 -27 66t-62 18q-95 0 -127 -133l-90 -387q-14 -63 -14 -98z" />
<glyph unicode="h" d="M39 0l334 1446h325l-110 -473q52 62 114 102.5t154 40.5q95 0 160 -50t65 -157q0 -32 -12 -94l-188 -815h-324l178 772q6 24 6 49q0 44 -25 65t-61 21q-53 0 -75 -29t-31 -71l-184 -807h-326z" />
<glyph unicode="i" horiz-adv-x="512" d="M39 0l252 1098h325l-254 -1098h-323zM315 1200l58 246h323l-55 -246h-326z" />
<glyph unicode="j" horiz-adv-x="512" d="M-197 -403l50 215q61 0 90 5t49 29t31 74l272 1178h323l-274 -1188q-28 -122 -60 -183.5t-86.5 -89t-135 -34t-259.5 -6.5zM319 1202l58 246h321l-55 -246h-324z" />
<glyph unicode="k" d="M41 0l334 1446h325l-176 -762l340 414h367l-426 -473l188 -625h-336l-155 590l-135 -590h-326z" />
<glyph unicode="l" horiz-adv-x="512" d="M39 0l334 1446h327l-333 -1446h-328z" />
<glyph unicode="m" horiz-adv-x="1579" d="M41 0l252 1098h330l-29 -125q64 89 148.5 119t146.5 30q74 0 136 -35t71 -116q40 49 90.5 84t109 52t121.5 17q84 0 154.5 -41t70.5 -147q0 -34 -12 -94l-194 -842h-332l180 778q4 30 4 41q0 37 -20.5 61.5t-63.5 24.5q-57 0 -81 -36t-38 -89l-180 -780h-334l183 791 q6 21 6 38q0 38 -24 61t-62 23q-96 0 -123 -120l-182 -793h-328z" />
<glyph unicode="n" d="M41 0l252 1098h321l-26 -109q79 83 157 108t134 25q74 0 139 -41t65 -157q0 -49 -14 -107l-188 -817h-326l176 772q6 25 6 51q0 50 -26 64t-49 14q-99 0 -123 -131l-179 -770h-319z" />
<glyph unicode="o" d="M111 272q0 76 45.5 278t64 261t42 108.5t68.5 97.5t121 78.5t189 30.5q105 0 197.5 -20.5t158.5 -87.5t66 -193q0 -50 -22 -167t-49.5 -231t-47.5 -175q-27 -79 -65 -136.5t-126 -99t-239 -41.5q-193 0 -298 70.5t-105 226.5zM430 281q0 -35 22 -59.5t66 -24.5 q58 0 81.5 36.5t41.5 110.5l98 438q6 22 6 43q0 41 -24.5 61.5t-63.5 20.5q-57 0 -81 -35.5t-35 -89.5l-103 -438q-8 -36 -8 -63z" />
<glyph unicode="p" d="M-51 -395l344 1493h330l-37 -140q63 79 122.5 121.5t159.5 42.5q99 0 160.5 -57t61.5 -164q0 -51 -17 -131l-106 -463q-37 -165 -113 -248.5t-207 -83.5q-91 0 -155 41.5t-82 108.5q-2 6 -2.5 9.5t-1 8t-3.5 4.5l-124 -542h-330zM440 279q0 -43 25.5 -64.5t60.5 -21.5 q88 0 113 116l98 428q17 74 17 92q0 41 -22.5 62.5t-61.5 21.5q-92 0 -113 -100l-104 -453q-13 -48 -13 -81z" />
<glyph unicode="q" d="M90 188q0 38 8 93.5t27 148.5t30.5 143t24.5 107q39 155 72 240t102 144.5t185 59.5q125 0 177 -52.5t60 -104.5l31 131h328l-347 -1499h-327l119 512q-46 -56 -103 -96t-151 -40q-97 0 -160 45q-76 56 -76 168zM418 274q0 -42 23.5 -65t60.5 -23q57 0 85 40.5t44 111.5 l92 395q1 5 5 24.5t6.5 36t2.5 31.5q0 22 -8 41q-20 43 -82 43q-53 0 -77.5 -37.5t-43.5 -103.5q-43 -152 -61 -236q-47 -191 -47 -258z" />
<glyph unicode="r" horiz-adv-x="682" d="M41 0l254 1098h323l-51 -219q47 89 89 133.5t95.5 66.5t145.5 37l-82 -305q-22 2 -67 2q-87 0 -135 -26.5t-73 -82t-53 -169.5l-122 -535h-324z" />
<glyph unicode="s" horiz-adv-x="938" d="M55 240q0 45 25 135h315q-22 -73 -22 -109q0 -69 82 -69q37 0 59 14q47 33 47 111q0 44 -41 77q-15 14 -99.5 76t-109.5 80q-121 95 -121 203q0 44 18 104t38 99q45 79 143 120t234 41q110 0 196 -28t135.5 -85.5t49.5 -138.5q0 -33 -17 -112h-309q18 60 18 88 q0 19 -15 40t-67 21q-60 0 -79 -38.5t-19 -67.5q0 -26 15 -45t49 -45q12 -9 59 -42t55 -40q86 -60 125.5 -93t61.5 -74t22 -97q0 -58 -22.5 -135t-61.5 -124q-45 -56 -135 -92.5t-223 -36.5q-159 0 -254 43q-79 37 -115.5 89t-36.5 131z" />
<glyph unicode="t" horiz-adv-x="641" d="M127 164q0 38 18 106l152 631h-131l45 197h133l80 350h321l-81 -350h145l-47 -197h-144l-133 -571q-8 -38 -8 -64q0 -40 27 -48.5t106 -8.5l-47 -209q-134 0 -202.5 3t-124.5 18.5t-82.5 48.5t-26.5 94z" />
<glyph unicode="u" d="M88 178q0 56 16 123l183 797h331l-165 -717q-19 -75 -19 -105q0 -38 23 -58.5t55 -20.5q59 0 86.5 49.5t44.5 126.5l166 725h330l-254 -1098h-328l25 115q-58 -61 -119.5 -98t-159.5 -37q-83 0 -149 43.5t-66 154.5z" />
<glyph unicode="v" horiz-adv-x="895" d="M168 0l25 1098h317q-19 -238 -33 -432q-25 -340 -45 -488q53 177 76 249t67 196q36 94 63.5 165.5t48 124.5t71.5 185h340l-490 -1098h-440z" />
<glyph unicode="w" horiz-adv-x="1493" d="M197 1098h315q-5 -96 -14 -303q-15 -273 -39 -537l80 254l211 586h368q-11 -185 -18 -391q-2 -45 -6.5 -117.5t-6 -95t-10.5 -117.5t-12 -119q39 156 76 254l217 586h342l-496 -1098h-352q0 220 2 319.5t8.5 226.5t16.5 273q-27 -86 -40 -124t-48.5 -130.5t-51.5 -134.5 q-130 -329 -168 -430h-360z" />
<glyph unicode="x" horiz-adv-x="938" d="M-49 0l411 586l-147 512h324l61 -299l172 299h340l-371 -551l148 -547h-320l-69 319l-191 -319h-358z" />
<glyph unicode="y" horiz-adv-x="895" d="M-119 -399l45 241q117 0 159.5 6.5t58.5 35.5t18 104l33 1108h325l-90 -965q23 108 59 213l256 752h355l-445 -1014q-72 -165 -124.5 -255.5t-115.5 -140.5t-152.5 -68.5t-235.5 -18.5q-36 1 -66.5 1.5t-79.5 0.5z" />
<glyph unicode="z" horiz-adv-x="854" d="M-37 0l47 209l553 684h-370l47 205h757l-47 -201l-542 -676h421l-51 -221h-815z" />
<glyph unicode="{" horiz-adv-x="811" d="M186 430v176q64 11 98 30.5t54 78.5t20 186v139q0 127 12.5 193t61.5 119q40 45 92.5 65t105.5 24.5t175 6.5v-150q-84 0 -121 -25t-45 -72t-8 -150v-121q0 -123 -11 -199.5t-60 -134.5t-154 -72v-12q105 -14 154 -72.5t60 -133.5t11 -195v-144q0 -69 4 -105.5t20 -65.5 t51.5 -43.5t98.5 -14.5v-150q-122 2 -175 6.5t-105.5 24.5t-92.5 66q-49 53 -61.5 118.5t-12.5 198.5v109q0 104 -8.5 165.5t-46 104t-117.5 49.5z" />
<glyph unicode="|" horiz-adv-x="469" d="M201 -512v2048h260v-2048h-260z" />
<glyph unicode="}" horiz-adv-x="811" d="M190 -262q83 0 121 25.5t46 72.5t8 150v120q0 123 11 199.5t60 134.5t154 72v12q-105 14 -153.5 72t-60 133.5t-11.5 194.5v145q0 91 -9 135.5t-46.5 69t-119.5 24.5v150q122 -2 175 -6.5t104.5 -24.5t93.5 -65q51 -55 62.5 -119.5t11.5 -198.5v-108q0 -105 8.5 -165.5 t46 -104t117.5 -50.5v-176q-65 -13 -98.5 -31.5t-53.5 -77.5t-20 -186v-139q0 -126 -11.5 -191t-62.5 -120q-42 -46 -93.5 -66t-104.5 -24.5t-175 -6.5v150z" />
<glyph unicode="~" horiz-adv-x="1493" d="M307 616q61 83 132 138t186 55q59 0 101 -14.5t185 -79.5q92 -47 156 -47q93 0 205 125l106 -213q-158 -172 -319 -172q-86 0 -215 65q-86 44 -129 60t-80 16q-42 0 -72 -12.5t-59 -40.5t-84 -90z" />
<glyph unicode="&#xa1;" horiz-adv-x="598" d="M41 0l59 260l224 715h188l-104 -696l-64 -279h-303zM301 1133l74 313h303l-74 -313h-303z" />
<glyph unicode="&#xa2;" horiz-adv-x="981" d="M109 264q0 66 26 191.5t60.5 257t37.5 139.5q36 109 97 165t125.5 73t165.5 28l53 223h160l-56 -231q67 -11 127.5 -33.5t107 -81t46.5 -159.5q0 -56 -27 -148h-315q28 110 28 139q0 35 -21.5 54.5t-57.5 19.5q-55 0 -85 -30t-51 -113l-102 -439q-4 -24 -4 -38 q0 -35 12 -50q25 -36 76 -36q63 0 87 41.5t46 144.5h330q-25 -113 -55.5 -191t-98.5 -131q-46 -37 -131.5 -62.5t-173.5 -25.5l-61 -262h-158l63 277q-100 22 -175.5 83.5t-75.5 194.5z" />
<glyph unicode="&#xa3;" horiz-adv-x="1323" d="M37 223q0 52 18.5 100t56 87.5t92.5 62.5t122 23q75 0 124.5 -19t106.5 -57q0 68 -6.5 109t-30.5 106h-317l26 117h254q-23 92 -33 150.5t-10 117.5q0 166 62 267t169 143.5t249 42.5q92 0 165.5 -16t122.5 -46q121 -68 121 -219q0 -75 -41 -234h-311q12 53 24.5 108.5 t12.5 72.5q0 96 -105 96q-85 0 -112 -78q-23 -55 -32 -116.5t-9 -108.5q0 -37 6.5 -85t15.5 -95h408l-27 -117h-362q16 -90 16 -137q0 -57 -12.5 -100.5t-40.5 -112.5q48 -33 88 -33q61 0 86.5 47t58.5 184h320q-48 -204 -81.5 -299t-102 -152t-193.5 -57q-71 0 -125.5 20 t-88 46t-75.5 68q-37 -37 -71.5 -63t-96 -48.5t-145.5 -22.5q-144 0 -220.5 72t-76.5 176zM225 236q0 -53 39.5 -77t81.5 -24q56 0 96.5 29.5t75.5 73.5q-84 102 -178 102q-54 0 -84.5 -29t-30.5 -75z" />
<glyph unicode="&#xa4;" horiz-adv-x="1366" d="M119 219l168 166q-22 36 -34.5 60t-25.5 63t-20.5 82t-7.5 106q0 72 12.5 130.5t29.5 95.5t44 84l-162 163l192 195l164 -164q60 37 132.5 62.5t179.5 25.5q108 0 177 -24t132 -64l164 164l196 -195l-168 -163q41 -65 64.5 -133.5t23.5 -176.5q0 -111 -24 -180t-64 -133 l166 -168l-196 -195l-164 168q-150 -86 -307 -86q-102 0 -169.5 23.5t-142.5 64.5l-166 -165zM455 694q0 -103 50 -180.5t127.5 -117.5t158.5 -40q94 0 171 45.5t119.5 123t42.5 171.5q0 105 -48.5 181t-125 116.5t-159.5 40.5q-85 0 -162.5 -40.5t-125.5 -118t-48 -181.5z " />
<glyph unicode="&#xa5;" horiz-adv-x="1067" d="M70 375l49 192h270l-16 127h-226l48 193h151l-82 561h342l47 -598l297 598h391l-346 -561h152l-47 -193h-226l-75 -127h266l-41 -192h-307l-84 -375h-348l86 375h-301z" />
<glyph unicode="&#xa6;" horiz-adv-x="469" d="M201 -358v716h260v-716h-260zM201 666v716h260v-716h-260z" />
<glyph unicode="&#xa7;" horiz-adv-x="938" d="M45 197l160 165q73 -75 131 -116t131 -41q37 0 62.5 14t25.5 43q0 25 -16.5 44t-77.5 65q-113 84 -168.5 133t-85 102.5t-29.5 124.5q0 116 55 171.5t134 92.5q-41 44 -64.5 82.5t-23.5 106.5q0 78 44.5 145t131 105.5t202.5 38.5q105 0 185 -29.5t125.5 -64.5t91.5 -81 l-152 -161q-57 54 -112 86t-121 32q-82 0 -82 -55q0 -16 8.5 -29.5t23 -24.5t93.5 -69q154 -112 208 -174t54 -162q0 -113 -54.5 -173t-136.5 -107q37 -43 58.5 -86.5t21.5 -104.5q0 -75 -38 -142t-123.5 -110t-217.5 -43q-176 0 -276 68.5t-168 153.5zM408 819 q0 -54 59 -100q10 -8 34 -25.5t66.5 -50t72.5 -55.5t56 -43q28 23 44 45.5t16 50.5q0 37 -24.5 63.5t-108.5 88.5q-45 33 -164 125q-51 -51 -51 -99z" />
<glyph unicode="&#xa8;" horiz-adv-x="512" d="M-141 1237l57 256h285l-60 -256h-282zM309 1237l58 256h286l-57 -256h-287z" />
<glyph unicode="&#xa9;" horiz-adv-x="1706" d="M221 723q0 154 56.5 287t159.5 233.5t234.5 154.5t278.5 54q201 0 368.5 -96t264 -265t96.5 -372q0 -144 -53.5 -274.5t-152.5 -232.5t-234 -160t-291 -58q-139 0 -272 53.5t-235.5 151.5t-161 233.5t-58.5 290.5zM287 723q0 -183 89.5 -336.5t242 -240.5t331.5 -87 q143 0 263.5 52t211.5 145.5t140 212t49 250.5q0 136 -50 259.5t-140.5 215t-210.5 142t-263 50.5q-179 0 -331 -88.5t-242 -240.5t-90 -334zM455 729q0 99 34 191t98 163t160 112.5t220 41.5q146 0 241 -52t160 -122l-178 -172q-56 55 -109.5 77.5t-117.5 22.5 q-83 0 -140.5 -37.5t-85.5 -98t-28 -128.5q0 -84 33 -143.5t93 -91t134 -31.5q42 0 76 8.5t62.5 23.5t44 27.5t38.5 32.5l178 -164q-91 -96 -190 -134t-211 -38q-155 0 -272 65.5t-178.5 182t-61.5 264.5z" />
<glyph unicode="&#xaa;" horiz-adv-x="641" d="M186 870q0 43 20 112t50 103q33 39 114.5 69.5t225.5 66.5q14 69 14 77q0 35 -51 35q-29 0 -50.5 -17t-33.5 -81h-199q27 98 34.5 118t25.5 40q65 71 231 71q130 0 193 -47q49 -35 49 -102q0 -15 -10 -78l-90 -393q-4 -20 -4 -31q0 -18 5 -28t17 -21h-242l15 65 q-45 -38 -84.5 -61t-91.5 -23q-41 0 -89.5 22.5t-48.5 102.5zM401 924q0 -39 43 -39q36 0 80 39l41 157q-98 -26 -123 -47q-19 -15 -30 -53t-11 -57z" />
<glyph unicode="&#xab;" horiz-adv-x="895" d="M106 457l62 262l389 266l-68 -293l-170 -117l115 -118l-59 -256zM516 457l59 260l392 270l-70 -297l-166 -117l113 -116l-62 -260z" />
<glyph unicode="&#xac;" horiz-adv-x="1366" d="M72 465v260h1364v-725h-260v465h-1104z" />
<glyph unicode="&#xad;" horiz-adv-x="682" d="M143 604l54 236h553l-54 -236h-553z" />
<glyph unicode="&#xae;" horiz-adv-x="1706" d="M221 723q0 154 56.5 287t160 234t233.5 154.5t277 53.5q151 0 287 -55.5t233.5 -153.5t154 -234t56.5 -288q0 -146 -53.5 -276t-153.5 -233t-234 -160.5t-290 -57.5q-139 0 -272 53.5t-235.5 151.5t-161 233.5t-58.5 290.5zM287 723q0 -183 89.5 -336.5t242 -240.5 t329.5 -87q143 0 264.5 52t212 145t140 212.5t49.5 252.5q0 135 -49.5 257.5t-140 214t-211.5 142.5t-265 51q-178 0 -330.5 -88t-241.5 -240t-89 -335zM608 262v938h334q158 0 223 -22q84 -25 125 -91t41 -141q0 -62 -25.5 -105t-57 -64.5t-81.5 -45.5q46 -28 69 -62.5 t36 -113.5q17 -110 32 -170t48 -123h-258q-20 40 -27 66t-25 137q-15 99 -28.5 135t-48.5 45.5t-131 9.5v-393h-226zM834 834h98q88 0 131 16.5t43 83.5q0 53 -32 72.5t-62 19.5q-17 2 -178 2v-194z" />
<glyph unicode="&#xaf;" horiz-adv-x="512" d="M-96 1237l41 178h663l-39 -178h-665z" />
<glyph unicode="&#xb0;" horiz-adv-x="725" d="M199 1171q0 96 46 177.5t126.5 129.5t179.5 48t179.5 -48t126.5 -129.5t46 -177.5q0 -68 -27.5 -134t-74.5 -113.5t-112 -76t-138 -28.5q-94 0 -176 48t-129 128.5t-47 175.5zM438 1176q0 -45 34 -79t81 -34t80 33t33 80q0 50 -34 82t-79 32q-47 0 -81 -33t-34 -81z" />
<glyph unicode="&#xb1;" horiz-adv-x="1366" d="M182 0v260h1194v-260h-1194zM182 760v260h469v426h260v-426h465v-260h-465v-428h-260v428h-469z" />
<glyph unicode="&#xb2;" horiz-adv-x="682" d="M135 543q20 147 62.5 226.5t117.5 133.5q80 54 167 111.5t100 75.5q17 22 31 79.5t14 79.5q0 54 -58 54q-31 0 -48 -16.5t-27 -49t-31 -127.5h-207q21 99 38.5 159.5t49 103.5t87 65t144.5 22q265 0 265 -182q0 -44 -12.5 -109t-39.5 -122q-24 -54 -57 -82.5t-123 -83.5 q-86 -53 -119.5 -76t-52.5 -44t-33 -50h345l-39 -168h-574z" />
<glyph unicode="&#xb3;" horiz-adv-x="682" d="M174 717q0 53 21 135h202q-22 -95 -22 -121q0 -55 69 -55q54 0 74 55q9 28 20 82.5t11 77.5q0 33 -23 39t-125 6l37 158q70 0 94.5 1t33.5 3.5t22 11.5q19 18 31 72.5t12 79.5q0 51 -58 51q-34 0 -53 -13t-28 -40.5t-23 -92.5h-203q30 123 54.5 179t84.5 87t179 31 q64 0 120 -17t91.5 -56t35.5 -101q0 -34 -9 -82t-23 -90q-29 -88 -111 -100q-4 -2 -8 -2l8 -2q21 -5 46.5 -27.5t25.5 -73.5q0 -35 -21 -127.5t-53 -146.5q-36 -62 -100 -86.5t-162 -24.5q-112 0 -181 45.5t-69 143.5z" />
<glyph unicode="&#xb4;" horiz-adv-x="512" d="M-8 1239l190 256h340l-282 -256h-248z" />
<glyph unicode="&#xb5;" d="M-57 -395l344 1493h329l-163 -717q-19 -78 -19 -105q0 -37 23.5 -58t54.5 -21q56 0 84.5 49t46.5 127l166 725h330l-254 -1098h-330l27 115q-33 -49 -53.5 -74t-40 -36t-46.5 -11q-36 0 -71 33l-99 -422h-329z" />
<glyph unicode="&#xb6;" horiz-adv-x="1366" d="M264 1006q0 206 135 329q72 68 152.5 89.5t175.5 21.5h512v-160h-74v-1628h-172v1628h-241v-1628h-172v940q-67 17 -133.5 52t-124.5 122t-58 234z" />
<glyph unicode="&#xb8;" horiz-adv-x="512" d="M39 -301q26 -10 45 -16.5t38 -10.5t38 -4q54 0 79 32t25 62q0 31 -23.5 52.5t-58.5 21.5q-13 0 -39 -4q-1 5 -2.5 16t-3 21.5t-2.5 15.5l117 115h168l-96 -115q61 -8 104 -32.5t43 -102.5q0 -46 -26 -91.5t-82 -75t-138 -29.5q-55 0 -89.5 11t-96.5 40v94z" />
<glyph unicode="&#xb9;" horiz-adv-x="682" d="M324 543l149 655q-67 -38 -149 -59l45 192q140 15 194 115h172l-211 -903h-200z" />
<glyph unicode="&#xba;" horiz-adv-x="641" d="M211 930q0 36 13 102.5t30 138t25 95.5q23 83 78.5 140.5t183.5 57.5q104 0 185 -35.5t81 -152.5q0 -51 -32.5 -196.5t-53.5 -196.5q-27 -58 -80.5 -99t-177.5 -41q-252 0 -252 187zM414 936q0 -49 51 -49q36 0 49 22t25 68l61 272q4 16 4 27q0 47 -53 47q-34 0 -48 -21 t-20 -55l-63 -272q-6 -18 -6 -39z" />
<glyph unicode="&#xbb;" horiz-adv-x="895" d="M76 199l67 293l168 122l-112 115l59 262l268 -262l-61 -262zM485 201l68 293l170 116l-117 119l60 256l268 -256l-62 -262z" />
<glyph unicode="&#xbc;" horiz-adv-x="1622" d="M324 543l149 655q-43 -24 -71 -34.5t-78 -24.5l45 192q140 15 194 117h172l-211 -905h-200zM442 0l713 1448h162l-713 -1448h-162zM946 190l35 158l395 557h269l-129 -561h83l-32 -149h-84l-47 -195h-205l47 190h-332zM1157 348h160l35 152l20 80l11.5 46t13 49t16.5 60 q-9 -14 -39 -61.5t-50 -77.5t-40 -59z" />
<glyph unicode="&#xbd;" horiz-adv-x="1622" d="M322 543l151 653q-47 -24 -74.5 -34.5t-76.5 -22.5l45 192q143 15 194 115h174l-211 -903h-202zM416 0l712 1446h164l-714 -1446h-162zM948 0q20 147 62.5 226.5t117.5 133.5q80 54 167 111.5t100 75.5q18 24 31.5 80t13.5 80q0 53 -58 53q-31 0 -48 -16.5t-27 -49 t-31 -127.5h-207q30 143 55 209t86.5 104t178.5 38q264 0 264 -183q0 -116 -51 -231q-24 -54 -57 -82.5t-124 -83.5q-118 -72 -151.5 -100t-52.5 -70h344l-39 -168h-574z" />
<glyph unicode="&#xbe;" horiz-adv-x="1622" d="M174 717q0 53 21 135h202q-22 -95 -22 -121q0 -55 69 -55q54 0 74 55q9 28 20 82.5t11 77.5q0 33 -23 39t-125 6l37 158q70 0 94.5 1t33.5 3.5t22 11.5q19 18 31 72.5t12 79.5q0 51 -58 51q-34 0 -53 -13t-28 -40.5t-23 -92.5h-203q30 123 54.5 179t84.5 87t179 31 q64 0 120 -17t91.5 -56t35.5 -101q0 -34 -9 -82t-23 -90q-29 -88 -111 -100q-4 -2 -8 -2l8 -2q21 -5 46.5 -27.5t25.5 -73.5q0 -35 -21 -127.5t-53 -146.5q-36 -62 -100 -86.5t-162 -24.5q-112 0 -181 45.5t-69 143.5zM502 0l712 1448h162l-712 -1448h-162zM946 190l35 158 l395 557h269l-132 -561h86l-34 -149h-82l-47 -195h-207l47 190h-330zM1157 348h160l35 152q39 164 61 235q-29 -46 -40.5 -64.5t-20 -31t-26 -39t-42.5 -63.5z" />
<glyph unicode="&#xbf;" horiz-adv-x="938" d="M49 233q0 91 45 218q23 61 59.5 96.5t147.5 111.5t150.5 110t54 70.5t33.5 135.5h307q-34 -147 -47 -192.5t-34.5 -77.5t-66.5 -70q-18 -16 -142.5 -100t-141.5 -103q-26 -28 -43 -77t-17 -91q0 -34 20 -55t56 -21q44 0 65.5 18t33.5 56t38 150h299q-19 -88 -33.5 -144.5 t-27 -93t-29 -61.5t-39.5 -47q-55 -52 -146 -72.5t-181 -20.5q-144 0 -252.5 52t-108.5 208zM575 1135l74 313h307l-73 -313h-308z" />
<glyph unicode="&#xc0;" horiz-adv-x="1110" d="M-27 0l621 1446h563l-104 -1446h-344l30 322h-268l-123 -322h-375zM510 1796h346l191 -252h-248zM565 569h197l65 744z" />
<glyph unicode="&#xc1;" horiz-adv-x="1110" d="M-27 0l621 1446h563l-104 -1446h-344l30 322h-268l-123 -322h-375zM565 569h197l65 744zM707 1544l190 254h340l-281 -254h-249z" />
<glyph unicode="&#xc2;" horiz-adv-x="1110" d="M-27 0l621 1446h563l-104 -1446h-344l30 322h-268l-123 -322h-375zM522 1542l273 256h260l145 -256h-215l-76 127l-135 -127h-252zM565 569h197l65 744z" />
<glyph unicode="&#xc3;" horiz-adv-x="1110" d="M-27 0l621 1446h563l-104 -1446h-344l30 322h-268l-123 -322h-375zM563 1563q14 101 56.5 170t158.5 69q54 0 133 -28q103 -39 140 -39q40 0 57.5 15.5t32.5 45.5h92q-13 -66 -29.5 -114t-62.5 -89t-127 -41q-58 0 -140 31q-97 41 -135 41t-52.5 -14.5t-29.5 -46.5h-94z M565 569h197l65 744z" />
<glyph unicode="&#xc4;" horiz-adv-x="1110" d="M-27 0l621 1446h563l-104 -1446h-344l30 322h-268l-123 -322h-375zM518 1538l60 256h284l-59 -256h-285zM565 569h197l65 744zM971 1538l59 256h287l-62 -256h-284z" />
<glyph unicode="&#xc5;" horiz-adv-x="1110" d="M-27 0l621 1446h563l-104 -1446h-344l30 322h-268l-123 -322h-375zM565 569h197l65 744zM707 1659q3 86 59.5 131t148.5 45q59 0 108 -18.5t79 -58t33 -101.5q0 -86 -64.5 -131t-146.5 -45q-91 0 -154 48.5t-63 129.5zM823 1657q0 -36 23 -67t76 -31q50 0 72 33t22 65 q0 21 -8 43t-29 37.5t-57 15.5q-52 0 -75.5 -29.5t-23.5 -66.5z" />
<glyph unicode="&#xc6;" horiz-adv-x="1622" d="M-20 0l837 1446h1012l-60 -250h-372l-78 -334h352l-57 -248h-352l-84 -364h409l-57 -250h-758l94 401h-280l-211 -401h-395zM721 651h203l149 639z" />
<glyph unicode="&#xc7;" horiz-adv-x="1067" d="M100 258q0 68 33 203l139 610q34 141 79.5 222.5t148 129t282.5 47.5q234 0 330 -76.5t96 -215.5q0 -47 -12 -103l-43 -178h-336l39 170q6 21 6 47q0 92 -108 92q-97 0 -117 -86l-172 -741q-12 -50 -12 -74q0 -82 100 -82q54 0 83.5 27.5t48.5 89.5t50 207h359l-52 -211 q-33 -136 -81 -210t-132.5 -109.5t-228.5 -43.5l-74 -88q62 -8 105 -33.5t43 -101.5q0 -46 -26 -91.5t-82 -75t-138 -29.5q-56 0 -88.5 10.5t-97.5 40.5v94q26 -10 45 -16.5t37.5 -10.5t37.5 -4q54 0 79.5 31.5t25.5 62.5t-23.5 52.5t-58.5 21.5q-15 0 -39 -4q-1 5 -2.5 16 t-3 21.5t-2.5 15.5l90 90q-173 19 -250.5 100.5t-77.5 182.5z" />
<glyph unicode="&#xc8;" horiz-adv-x="895" d="M41 0l334 1446h727l-58 -250h-374l-76 -328h356l-55 -245h-358l-84 -369h409l-57 -254h-764zM393 1796h346l191 -252h-248z" />
<glyph unicode="&#xc9;" horiz-adv-x="895" d="M41 0l334 1446h727l-58 -250h-374l-76 -328h356l-55 -245h-358l-84 -369h409l-57 -254h-764zM590 1544l190 254h340l-280 -254h-250z" />
<glyph unicode="&#xca;" horiz-adv-x="895" d="M41 0l334 1446h727l-58 -250h-374l-76 -328h356l-55 -245h-358l-84 -369h409l-57 -254h-764zM406 1542l272 256h260l145 -256h-215l-75 127l-136 -127h-251z" />
<glyph unicode="&#xcb;" horiz-adv-x="895" d="M41 0l334 1446h727l-58 -250h-374l-76 -328h356l-55 -245h-358l-84 -369h409l-57 -254h-764zM379 1538l59 256h285l-59 -256h-285zM831 1538l60 256h287l-62 -256h-285z" />
<glyph unicode="&#xcc;" horiz-adv-x="555" d="M43 0l334 1446h350l-334 -1446h-350zM211 1796h346l191 -252h-248z" />
<glyph unicode="&#xcd;" horiz-adv-x="555" d="M43 0l334 1446h350l-334 -1446h-350zM408 1544l190 254h340l-281 -254h-249z" />
<glyph unicode="&#xce;" horiz-adv-x="555" d="M43 0l334 1446h350l-334 -1446h-350zM223 1542l273 256h260l145 -256h-215l-76 127l-135 -127h-252z" />
<glyph unicode="&#xcf;" horiz-adv-x="555" d="M43 0l334 1446h350l-334 -1446h-350zM197 1538l59 256h285l-60 -256h-284zM649 1538l60 256h286l-61 -256h-285z" />
<glyph unicode="&#xd0;" horiz-adv-x="1110" d="M45 0l158 682h-111l49 209h111l127 557h405q164 0 253.5 -13t146.5 -66.5t57 -166.5q0 -57 -16 -139l-164 -711q-24 -106 -50 -170.5t-67.5 -104.5t-109 -58.5t-172.5 -18.5h-617zM451 242q124 0 153 4q38 5 68.5 30.5t48.5 104.5l160 700q4 26 4 39q0 47 -26 63.5 t-77 16.5h-110l-72 -309h133l-49 -209h-131z" />
<glyph unicode="&#xd1;" horiz-adv-x="1151" d="M45 0l334 1446h340q39 -301 51 -398t24.5 -213t28.5 -286q33 203 41.5 249t46.5 230q20 94 31.5 148t21 99t35.5 171h322l-336 -1446h-336l-51 416q-4 35 -13.5 110.5t-16.5 140.5t-11 113.5t-10 110.5l-176 -891h-326zM563 1563q14 101 56.5 170t158.5 69q54 0 133 -28 q103 -39 140 -39q40 0 57.5 15.5t32.5 45.5h92q-13 -66 -29.5 -114t-62.5 -89t-127 -41q-58 0 -140 31q-97 41 -135 41t-52.5 -14.5t-29.5 -46.5h-94z" />
<glyph unicode="&#xd2;" horiz-adv-x="1110" d="M115 295q0 72 24 180l133 559q38 154 79.5 239t144 141t288.5 56q85 0 175.5 -16.5t150.5 -58.5q113 -81 113 -238q0 -96 -54 -317l-114 -488q-35 -144 -92 -226.5t-155 -119.5t-259 -37q-179 0 -306.5 72t-127.5 254zM461 315q0 -84 106 -84q46 0 74 22t44.5 62.5 t35.5 114.5q25 96 73 298t58 245q31 120 31 145q0 43 -26 67.5t-75 24.5q-60 0 -84 -24t-36 -64q-26 -94 -55 -203.5t-56.5 -217.5t-58.5 -237.5t-31 -148.5zM489 1796h347l190 -252h-248z" />
<glyph unicode="&#xd3;" horiz-adv-x="1110" d="M115 295q0 72 24 180l133 559q38 154 79.5 239t144 141t288.5 56q85 0 175.5 -16.5t150.5 -58.5q113 -81 113 -238q0 -96 -54 -317l-114 -488q-35 -144 -92 -226.5t-155 -119.5t-259 -37q-179 0 -306.5 72t-127.5 254zM461 315q0 -84 106 -84q46 0 74 22t44.5 62.5 t35.5 114.5q25 96 73 298t58 245q31 120 31 145q0 43 -26 67.5t-75 24.5q-60 0 -84 -24t-36 -64q-26 -94 -55 -203.5t-56.5 -217.5t-58.5 -237.5t-31 -148.5zM696 1544l191 254h340l-281 -254h-250z" />
<glyph unicode="&#xd4;" horiz-adv-x="1110" d="M115 295q0 72 24 180l133 559q38 154 79.5 239t144 141t288.5 56q85 0 175.5 -16.5t150.5 -58.5q113 -81 113 -238q0 -96 -54 -317l-114 -488q-35 -144 -92 -226.5t-155 -119.5t-259 -37q-179 0 -306.5 72t-127.5 254zM461 315q0 -84 106 -84q46 0 74 22t44.5 62.5 t35.5 114.5q25 96 73 298t58 245q31 120 31 145q0 43 -26 67.5t-75 24.5q-60 0 -84 -24t-36 -64q-26 -94 -55 -203.5t-56.5 -217.5t-58.5 -237.5t-31 -148.5zM512 1542l272 256h260l146 -256h-215l-76 127l-135 -127h-252z" />
<glyph unicode="&#xd5;" horiz-adv-x="1110" d="M115 295q0 72 24 180l133 559q38 154 79.5 239t144 141t288.5 56q85 0 175.5 -16.5t150.5 -58.5q113 -81 113 -238q0 -96 -54 -317l-114 -488q-35 -144 -92 -226.5t-155 -119.5t-259 -37q-179 0 -306.5 72t-127.5 254zM461 315q0 -84 106 -84q46 0 74 22t44.5 62.5 t35.5 114.5q25 96 73 298t58 245q31 120 31 145q0 43 -26 67.5t-75 24.5q-60 0 -84 -24t-36 -64q-26 -94 -55 -203.5t-56.5 -217.5t-58.5 -237.5t-31 -148.5zM553 1563q14 101 56.5 170t158.5 69q51 0 133 -28q103 -39 139 -39q41 0 57.5 15t32.5 46h93q-13 -66 -30 -114 t-62 -89t-127 -41q-58 0 -140 31q-97 41 -135 41t-54.5 -16.5t-27.5 -44.5h-94z" />
<glyph unicode="&#xd6;" horiz-adv-x="1110" d="M115 295q0 72 24 180l133 559q38 154 79.5 239t144 141t288.5 56q85 0 175.5 -16.5t150.5 -58.5q113 -81 113 -238q0 -96 -54 -317l-114 -488q-35 -144 -92 -226.5t-155 -119.5t-259 -37q-179 0 -306.5 72t-127.5 254zM461 315q0 -84 106 -84q46 0 74 22t44.5 62.5 t35.5 114.5q25 96 73 298t58 245q31 120 31 145q0 43 -26 67.5t-75 24.5q-60 0 -84 -24t-36 -64q-26 -94 -55 -203.5t-56.5 -217.5t-58.5 -237.5t-31 -148.5zM500 1538l59 256h285l-60 -256h-284zM952 1538l60 256h286l-61 -256h-285z" />
<glyph unicode="&#xd7;" horiz-adv-x="1366" d="M221 225l373 371l-373 375l185 180l372 -369l375 369l182 -180l-370 -375l370 -371l-182 -186l-375 373l-372 -373z" />
<glyph unicode="&#xd8;" horiz-adv-x="1110" d="M23 88l106 115q-10 50 -10 92q0 50 7.5 94t47.5 232q64 274 121 475q27 90 52.5 151t74 112.5t135.5 82.5t221 31q175 0 256 -34.5t140 -90.5l77 82l86 -82l-112 -121q6 -34 6 -58q0 -89 -74 -399q-12 -55 -22 -95.5t-29.5 -114.5t-32 -122t-22.5 -84 q-34 -127 -77.5 -205.5t-136.5 -126t-262 -47.5q-122 0 -194.5 15.5t-111.5 38t-83 59.5l-77 -80zM446 334q0 -58 36 -84.5t83 -26.5q75 0 112.5 54t72.5 172q8 27 100 368l-399 -438q-5 -35 -5 -45zM487 594l408 448q6 37 6 74q0 70 -42 90.5t-79 20.5q-45 0 -75.5 -19.5 t-50.5 -56t-35 -81.5t-50 -167q-26 -102 -48 -183t-34 -126z" />
<glyph unicode="&#xd9;" horiz-adv-x="1110" d="M106 295q5 103 52 305l200 848h349l-238 -1034q-12 -39 -12 -80q0 -86 106 -86q67 0 97 44.5t49 121.5l237 1034h348l-239 -1034q-32 -139 -77.5 -228.5t-151 -149t-289.5 -59.5q-121 0 -218 31.5t-155 102t-58 184.5zM489 1796h347l190 -252h-248z" />
<glyph unicode="&#xda;" horiz-adv-x="1110" d="M106 295q5 103 52 305l200 848h349l-238 -1034q-12 -39 -12 -80q0 -86 106 -86q67 0 97 44.5t49 121.5l237 1034h348l-239 -1034q-32 -139 -77.5 -228.5t-151 -149t-289.5 -59.5q-121 0 -218 31.5t-155 102t-58 184.5zM686 1544l191 254h340l-281 -254h-250z" />
<glyph unicode="&#xdb;" horiz-adv-x="1110" d="M106 295q5 103 52 305l200 848h349l-238 -1034q-12 -39 -12 -80q0 -86 106 -86q67 0 97 44.5t49 121.5l237 1034h348l-239 -1034q-32 -139 -77.5 -228.5t-151 -149t-289.5 -59.5q-121 0 -218 31.5t-155 102t-58 184.5zM502 1542l272 256h260l146 -256h-215l-76 127 l-135 -127h-252z" />
<glyph unicode="&#xdc;" horiz-adv-x="1110" d="M106 295q5 103 52 305l200 848h349l-238 -1034q-12 -39 -12 -80q0 -86 106 -86q67 0 97 44.5t49 121.5l237 1034h348l-239 -1034q-32 -139 -77.5 -228.5t-151 -149t-289.5 -59.5q-121 0 -218 31.5t-155 102t-58 184.5zM477 1538l60 256h284l-59 -256h-285zM930 1538 l59 256h287l-62 -256h-284z" />
<glyph unicode="&#xdd;" horiz-adv-x="1067" d="M264 1446h342l49 -590l295 590h391l-600 -975l-108 -471h-348l116 500zM664 1544l190 254h340l-281 -254h-249z" />
<glyph unicode="&#xde;" horiz-adv-x="1067" d="M45 0l334 1448l352 8l-57 -250h192q119 0 213.5 -40.5t94.5 -188.5q0 -54 -15 -119l-47 -211q-10 -45 -31.5 -106.5t-42.5 -94.5q-22 -31 -55.5 -55.5t-95 -39.5t-150.5 -15h-266l-76 -336h-350zM532 598h138q42 0 69.5 14.5t46.5 65.5q9 26 27 103t18 106q0 43 -24 55 t-66 14h-125z" />
<glyph unicode="&#xdf;" horiz-adv-x="1067" d="M37 0l260 1122q28 121 69.5 194t133.5 115t256 42q110 0 199 -23t145.5 -77.5t56.5 -141.5q0 -35 -11 -97t-16 -77q-19 -86 -39 -133.5t-55.5 -77.5t-97.5 -43q-8 -2 -16.5 -3t-14.5 -3q7 -2 18 -5.5t15 -5.5q56 -20 88.5 -62t32.5 -101q0 -25 -9.5 -79t-26.5 -130 t-34.5 -141t-34.5 -107q-39 -95 -120 -136.5t-209 -41.5q-71 0 -209 12l41 176q26 -2 47 -4t35 -2q45 0 67.5 15.5t35 48.5t30.5 112l45 195q8 41 9.5 50.5t4.5 26.5q0 62 -33 82.5t-104 22.5l45 201q69 0 99.5 5.5t52 31.5t38.5 104.5t17 114.5q0 73 -98 73 q-57 0 -83.5 -29.5t-41.5 -101.5l-260 -1122h-328z" />
<glyph unicode="&#xe0;" horiz-adv-x="981" d="M37 170q0 61 31.5 172t78.5 166q35 39 87.5 66t146.5 57t315 94q7 27 16 71t9 58q0 61 -88 61q-64 0 -89 -33t-50 -126h-312q38 152 69.5 211t102.5 94q111 57 295 57q166 0 274.5 -53t108.5 -186q0 -49 -18 -123l-146 -631q-2 -16 -4 -28.5t-2 -20.5q0 -30 7 -44.5 t24 -31.5h-373l29 115q-80 -69 -144.5 -106.5t-150.5 -37.5q-66 0 -141.5 37t-75.5 162zM332 1495h344l195 -254h-250zM375 252q0 -68 71 -68q37 0 69 17.5t67 48.5l67 264q-166 -49 -207 -82q-34 -28 -50.5 -89.5t-16.5 -90.5z" />
<glyph unicode="&#xe1;" horiz-adv-x="981" d="M37 170q0 61 31.5 172t78.5 166q35 39 87.5 66t146.5 57t315 94q7 27 16 71t9 58q0 61 -88 61q-64 0 -89 -33t-50 -126h-312q38 152 69.5 211t102.5 94q111 57 295 57q166 0 274.5 -53t108.5 -186q0 -49 -18 -123l-146 -631q-2 -16 -4 -28.5t-2 -20.5q0 -30 7 -44.5 t24 -31.5h-373l29 115q-80 -69 -144.5 -106.5t-150.5 -37.5q-66 0 -141.5 37t-75.5 162zM375 252q0 -68 71 -68q37 0 69 17.5t67 48.5l67 264q-166 -49 -207 -82q-34 -28 -50.5 -89.5t-16.5 -90.5zM547 1239l190 256h340l-282 -256h-248z" />
<glyph unicode="&#xe2;" horiz-adv-x="981" d="M37 170q0 61 31.5 172t78.5 166q35 39 87.5 66t146.5 57t315 94q7 27 16 71t9 58q0 61 -88 61q-64 0 -89 -33t-50 -126h-312q38 152 69.5 211t102.5 94q111 57 295 57q166 0 274.5 -53t108.5 -186q0 -49 -18 -123l-146 -631q-2 -16 -4 -28.5t-2 -20.5q0 -30 7 -44.5 t24 -31.5h-373l29 115q-80 -69 -144.5 -106.5t-150.5 -37.5q-66 0 -141.5 37t-75.5 162zM360 1239l275 256h258l145 -256h-215l-76 127l-137 -127h-250zM375 252q0 -68 71 -68q37 0 69 17.5t67 48.5l67 264q-166 -49 -207 -82q-34 -28 -50.5 -89.5t-16.5 -90.5z" />
<glyph unicode="&#xe3;" horiz-adv-x="981" d="M37 170q0 61 31.5 172t78.5 166q35 39 87.5 66t146.5 57t315 94q7 27 16 71t9 58q0 61 -88 61q-64 0 -89 -33t-50 -126h-312q38 152 69.5 211t102.5 94q111 57 295 57q166 0 274.5 -53t108.5 -186q0 -49 -18 -123l-146 -631q-2 -16 -4 -28.5t-2 -20.5q0 -30 7 -44.5 t24 -31.5h-373l29 115q-80 -69 -144.5 -106.5t-150.5 -37.5q-66 0 -141.5 37t-75.5 162zM375 252q0 -68 71 -68q37 0 69 17.5t67 48.5l67 264q-166 -49 -207 -82q-34 -28 -50.5 -89.5t-16.5 -90.5zM407 1260q6 56 23 108t63 91.5t129 39.5q58 0 133 -29q101 -36 140 -36 t57.5 16.5t30.5 42.5h92q-18 -100 -61.5 -172t-159.5 -72q-57 0 -136 31q-115 41 -139 41q-33 0 -49.5 -16t-32.5 -45h-90z" />
<glyph unicode="&#xe4;" horiz-adv-x="981" d="M37 170q0 61 31.5 172t78.5 166q35 39 87.5 66t146.5 57t315 94q7 27 16 71t9 58q0 61 -88 61q-64 0 -89 -33t-50 -126h-312q38 152 69.5 211t102.5 94q111 57 295 57q166 0 274.5 -53t108.5 -186q0 -49 -18 -123l-146 -631q-2 -16 -4 -28.5t-2 -20.5q0 -30 7 -44.5 t24 -31.5h-373l29 115q-80 -69 -144.5 -106.5t-150.5 -37.5q-66 0 -141.5 37t-75.5 162zM330 1237l57 256h285l-60 -256h-282zM375 252q0 -68 71 -68q37 0 69 17.5t67 48.5l67 264q-166 -49 -207 -82q-34 -28 -50.5 -89.5t-16.5 -90.5zM780 1237l58 256h286l-57 -256h-287z " />
<glyph unicode="&#xe5;" horiz-adv-x="981" d="M37 170q0 61 31.5 172t78.5 166q35 39 87.5 66t146.5 57t315 94q7 27 16 71t9 58q0 61 -88 61q-64 0 -89 -33t-50 -126h-312q38 152 69.5 211t102.5 94q111 57 295 57q166 0 274.5 -53t108.5 -186q0 -49 -18 -123l-146 -631q-2 -16 -4 -28.5t-2 -20.5q0 -30 7 -44.5 t24 -31.5h-373l29 115q-80 -69 -144.5 -106.5t-150.5 -37.5q-66 0 -141.5 37t-75.5 162zM375 252q0 -68 71 -68q37 0 69 17.5t67 48.5l67 264q-166 -49 -207 -82q-34 -28 -50.5 -89.5t-16.5 -90.5zM524 1380q3 86 59.5 131t149.5 45q59 0 108 -18.5t78.5 -58.5t32.5 -101 q0 -86 -64.5 -131t-146.5 -45q-92 0 -154.5 49t-62.5 129zM641 1378q0 -36 23 -67t75 -31q50 0 72 33t22 65q0 38 -20.5 67.5t-73.5 29.5q-52 0 -75 -30t-23 -67z" />
<glyph unicode="&#xe6;" horiz-adv-x="1493" d="M39 188q0 48 19.5 126t39.5 122q23 47 48 75.5t63.5 50.5t80.5 37t116 36l272 82q24 98 24 121q0 40 -23 58.5t-61 18.5q-42 0 -64 -16.5t-33.5 -44t-35.5 -106.5h-313q33 134 48.5 176t49.5 84q57 66 155 91t193 25q196 0 275 -112q87 112 289 112q89 0 145.5 -17 t83.5 -34q121 -68 121 -219q0 -51 -18 -146t-48 -221h-516q-37 -161 -37 -208q0 -80 82 -80q60 0 85 40t44 123h334q-28 -110 -61 -182t-101 -121q-115 -86 -315 -86q-54 0 -119 11t-124.5 44.5t-86.5 98.5q-27 -37 -63.5 -70t-106.5 -59.5t-176 -26.5q-89 0 -177.5 42.5 t-88.5 174.5zM367 258q0 -78 75 -78q42 0 68.5 16t56.5 46l62 266q-99 -33 -134 -46.5t-56 -29.5t-38 -45q-11 -20 -22.5 -63t-11.5 -66zM993 680h199q29 134 29 145q0 80 -88 80q-67 0 -95 -55q-6 -13 -22.5 -79t-22.5 -91z" />
<glyph unicode="&#xe7;" horiz-adv-x="981" d="M109 266q0 46 15.5 130.5t42 198.5t46 184.5t20.5 72.5q39 116 111.5 175.5t154.5 77t181 17.5q174 0 276.5 -72.5t102.5 -205.5q0 -64 -27 -156h-315q28 110 28 139q0 34 -20.5 54t-60.5 20q-62 0 -88.5 -34.5t-45.5 -108.5l-102 -439q-4 -24 -4 -36q0 -31 12 -52 q25 -36 76 -36q63 0 87 42t46 146h330q-28 -128 -64 -208t-119.5 -134.5t-234.5 -67.5l-74 -88q62 -8 105 -33t43 -102q0 -46 -26 -91.5t-82 -75t-138 -29.5q-56 0 -88.5 10.5t-97.5 40.5v94q26 -10 45 -16.5t37.5 -10.5t37.5 -4q54 0 79.5 31.5t25.5 62.5t-23.5 52.5 t-58.5 21.5q-15 0 -39 -4q-1 5 -2.5 16t-3 21.5t-2.5 15.5l96 97q-70 14 -126 36t-106 83t-50 165z" />
<glyph unicode="&#xe8;" d="M111 266q0 71 26 201.5t60.5 259.5t52.5 170q23 56 66.5 106t130 85.5t225.5 35.5q148 0 267.5 -54.5t119.5 -213.5q0 -58 -19 -139q-22 -112 -53 -246h-524q-18 -69 -27.5 -119t-9.5 -82q0 -17 6 -32q23 -41 90 -41q43 0 67 18.5t36 52t24 86.5h334 q-20 -83 -42.5 -142.5t-68.5 -109.5q-114 -131 -366 -131q-70 0 -156.5 18t-148.5 66q-43 35 -66.5 84t-23.5 127zM352 1495h344l195 -254h-250zM508 672h211q29 127 29 149q0 35 -17 56q-23 28 -78 28q-49 0 -74.5 -24t-40 -73t-30.5 -136z" />
<glyph unicode="&#xe9;" d="M111 266q0 71 26 201.5t60.5 259.5t52.5 170q23 56 66.5 106t130 85.5t225.5 35.5q148 0 267.5 -54.5t119.5 -213.5q0 -58 -19 -139q-22 -112 -53 -246h-524q-18 -69 -27.5 -119t-9.5 -82q0 -17 6 -32q23 -41 90 -41q43 0 67 18.5t36 52t24 86.5h334 q-20 -83 -42.5 -142.5t-68.5 -109.5q-114 -131 -366 -131q-70 0 -156.5 18t-148.5 66q-43 35 -66.5 84t-23.5 127zM508 672h211q29 127 29 149q0 35 -17 56q-23 28 -78 28q-49 0 -74.5 -24t-40 -73t-30.5 -136zM567 1239l190 256h340l-282 -256h-248z" />
<glyph unicode="&#xea;" d="M111 266q0 71 26 201.5t60.5 259.5t52.5 170q23 56 66.5 106t130 85.5t225.5 35.5q148 0 267.5 -54.5t119.5 -213.5q0 -58 -19 -139q-22 -112 -53 -246h-524q-18 -69 -27.5 -119t-9.5 -82q0 -17 6 -32q23 -41 90 -41q43 0 67 18.5t36 52t24 86.5h334 q-20 -83 -42.5 -142.5t-68.5 -109.5q-114 -131 -366 -131q-70 0 -156.5 18t-148.5 66q-43 35 -66.5 84t-23.5 127zM381 1239l275 256h258l145 -256h-215l-76 127l-137 -127h-250zM508 672h211q29 127 29 149q0 35 -17 56q-23 28 -78 28q-49 0 -74.5 -24t-40 -73t-30.5 -136z " />
<glyph unicode="&#xeb;" d="M111 266q0 71 26 201.5t60.5 259.5t52.5 170q23 56 66.5 106t130 85.5t225.5 35.5q148 0 267.5 -54.5t119.5 -213.5q0 -58 -19 -139q-22 -112 -53 -246h-524q-18 -69 -27.5 -119t-9.5 -82q0 -17 6 -32q23 -41 90 -41q43 0 67 18.5t36 52t24 86.5h334 q-20 -83 -42.5 -142.5t-68.5 -109.5q-114 -131 -366 -131q-70 0 -156.5 18t-148.5 66q-43 35 -66.5 84t-23.5 127zM361 1237l57 256h285l-60 -256h-282zM508 672h211q29 127 29 149q0 35 -17 56q-23 28 -78 28q-49 0 -74.5 -24t-40 -73t-30.5 -136zM811 1237l58 256h286 l-57 -256h-287z" />
<glyph unicode="&#xec;" horiz-adv-x="512" d="M39 0l252 1098h327l-253 -1098h-326zM96 1495h344l195 -254h-250z" />
<glyph unicode="&#xed;" horiz-adv-x="512" d="M39 0l252 1098h327l-253 -1098h-326zM311 1239l190 256h340l-282 -256h-248z" />
<glyph unicode="&#xee;" horiz-adv-x="512" d="M39 0l252 1098h327l-253 -1098h-326zM125 1239l275 256h258l145 -256h-215l-76 127l-137 -127h-250z" />
<glyph unicode="&#xef;" horiz-adv-x="512" d="M39 0l252 1098h327l-253 -1098h-326zM105 1237l57 256h285l-60 -256h-282zM555 1237l58 256h286l-57 -256h-287z" />
<glyph unicode="&#xf0;" d="M109 270q0 76 46.5 282.5t63.5 258.5q38 121 117.5 220t255.5 99q52 0 108.5 -17t92.5 -64q-7 91 -56 186l-243 -70l-45 121l223 64q-46 66 -49 69l256 80q4 -6 27.5 -36.5t27.5 -39.5l137 41l47 -123l-117 -34q76 -138 76 -314q0 -73 -13.5 -183t-40 -244t-62.5 -257 q-29 -101 -66.5 -169.5t-127 -116.5t-253.5 -48q-405 0 -405 295zM428 281q0 -36 22 -60t68 -24q57 0 81.5 37.5t39.5 109.5l102 438q7 26 7 43q0 40 -25.5 61t-65.5 21q-58 0 -81 -34t-37 -91l-101 -438q-10 -30 -10 -63z" />
<glyph unicode="&#xf1;" d="M41 0l252 1098h321l-26 -109q79 83 157 108t134 25q74 0 139 -41t65 -157q0 -49 -14 -107l-188 -817h-326l176 772q6 25 6 51q0 50 -26 64t-49 14q-99 0 -123 -131l-179 -770h-319zM428 1260q6 56 23 108t63 91.5t129 39.5q58 0 133 -29q101 -36 140 -36t57.5 16.5 t30.5 42.5h92q-18 -100 -61.5 -172t-159.5 -72q-57 0 -136 31q-115 41 -139 41q-33 0 -49.5 -16t-32.5 -45h-90z" />
<glyph unicode="&#xf2;" d="M111 272q0 76 45.5 278t64 261t42 108.5t68.5 97.5t121 78.5t189 30.5q105 0 197.5 -20.5t158.5 -87.5t66 -193q0 -50 -22 -167t-49.5 -231t-47.5 -175q-27 -79 -65 -136.5t-126 -99t-239 -41.5q-193 0 -298 70.5t-105 226.5zM352 1495h344l195 -254h-250zM430 281 q0 -35 22 -59.5t66 -24.5q58 0 81.5 36.5t41.5 110.5l98 438q6 22 6 43q0 41 -24.5 61.5t-63.5 20.5q-57 0 -81 -35.5t-35 -89.5l-103 -438q-8 -36 -8 -63z" />
<glyph unicode="&#xf3;" d="M111 272q0 76 45.5 278t64 261t42 108.5t68.5 97.5t121 78.5t189 30.5q105 0 197.5 -20.5t158.5 -87.5t66 -193q0 -50 -22 -167t-49.5 -231t-47.5 -175q-27 -79 -65 -136.5t-126 -99t-239 -41.5q-193 0 -298 70.5t-105 226.5zM430 281q0 -35 22 -59.5t66 -24.5 q58 0 81.5 36.5t41.5 110.5l98 438q6 22 6 43q0 41 -24.5 61.5t-63.5 20.5q-57 0 -81 -35.5t-35 -89.5l-103 -438q-8 -36 -8 -63zM567 1239l190 256h340l-282 -256h-248z" />
<glyph unicode="&#xf4;" d="M111 272q0 76 45.5 278t64 261t42 108.5t68.5 97.5t121 78.5t189 30.5q105 0 197.5 -20.5t158.5 -87.5t66 -193q0 -50 -22 -167t-49.5 -231t-47.5 -175q-27 -79 -65 -136.5t-126 -99t-239 -41.5q-193 0 -298 70.5t-105 226.5zM381 1239l275 256h258l145 -256h-215 l-76 127l-137 -127h-250zM430 281q0 -35 22 -59.5t66 -24.5q58 0 81.5 36.5t41.5 110.5l98 438q6 22 6 43q0 41 -24.5 61.5t-63.5 20.5q-57 0 -81 -35.5t-35 -89.5l-103 -438q-8 -36 -8 -63z" />
<glyph unicode="&#xf5;" d="M111 272q0 76 45.5 278t64 261t42 108.5t68.5 97.5t121 78.5t189 30.5q105 0 197.5 -20.5t158.5 -87.5t66 -193q0 -50 -22 -167t-49.5 -231t-47.5 -175q-27 -79 -65 -136.5t-126 -99t-239 -41.5q-193 0 -298 70.5t-105 226.5zM428 1260q6 56 23 108t63 91.5t129 39.5 q58 0 133 -29q101 -36 140 -36t57.5 16.5t30.5 42.5h92q-18 -100 -61.5 -172t-159.5 -72q-57 0 -136 31q-115 41 -139 41q-33 0 -49.5 -16t-32.5 -45h-90zM430 281q0 -35 22 -59.5t66 -24.5q58 0 81.5 36.5t41.5 110.5l98 438q6 22 6 43q0 41 -24.5 61.5t-63.5 20.5 q-57 0 -81 -35.5t-35 -89.5l-103 -438q-8 -36 -8 -63z" />
<glyph unicode="&#xf6;" d="M111 272q0 76 45.5 278t64 261t42 108.5t68.5 97.5t121 78.5t189 30.5q105 0 197.5 -20.5t158.5 -87.5t66 -193q0 -50 -22 -167t-49.5 -231t-47.5 -175q-27 -79 -65 -136.5t-126 -99t-239 -41.5q-193 0 -298 70.5t-105 226.5zM363 1237l57 256h285l-60 -256h-282z M430 281q0 -35 22 -59.5t66 -24.5q58 0 81.5 36.5t41.5 110.5l98 438q6 22 6 43q0 41 -24.5 61.5t-63.5 20.5q-57 0 -81 -35.5t-35 -89.5l-103 -438q-8 -36 -8 -63zM813 1237l58 256h286l-57 -256h-287z" />
<glyph unicode="&#xf7;" horiz-adv-x="1366" d="M78 463v260h1364v-260h-1364zM594 225q0 68 46.5 117t119.5 49q71 0 117.5 -47.5t46.5 -118.5q0 -64 -45 -114t-121 -50q-67 0 -115.5 46.5t-48.5 117.5zM594 958q0 68 46.5 117t119.5 49q71 0 117.5 -47.5t46.5 -118.5q0 -63 -45 -113t-121 -50q-45 0 -82 21t-59.5 57.5 t-22.5 84.5z" />
<glyph unicode="&#xf8;" d="M47 18l90 107q-33 60 -33 143q0 54 19 152t48 208t50 175q56 172 150.5 246.5t275.5 74.5q180 0 287 -61l90 104l76 -61l-86 -102q29 -44 41 -76.5t12 -89.5q0 -89 -42 -269t-77 -286q-32 -106 -78 -171.5t-132 -102t-228 -36.5q-193 0 -307 78l-82 -96zM393 272 q6 -37 27 -65.5t82 -28.5q46 0 79 26t56 85q14 34 44 135t49.5 172t29.5 109zM420 453l342 407q-12 26 -32.5 43t-65.5 17q-102 0 -142 -140z" />
<glyph unicode="&#xf9;" d="M88 178q0 56 16 123l183 797h331l-165 -717q-19 -75 -19 -105q0 -38 23 -58.5t55 -20.5q59 0 86.5 49.5t44.5 126.5l166 725h330l-254 -1098h-328l25 115q-58 -61 -119.5 -98t-159.5 -37q-83 0 -149 43.5t-66 154.5zM352 1495h344l195 -254h-250z" />
<glyph unicode="&#xfa;" d="M88 178q0 56 16 123l183 797h331l-165 -717q-19 -75 -19 -105q0 -38 23 -58.5t55 -20.5q59 0 86.5 49.5t44.5 126.5l166 725h330l-254 -1098h-328l25 115q-58 -61 -119.5 -98t-159.5 -37q-83 0 -149 43.5t-66 154.5zM567 1239l190 256h340l-282 -256h-248z" />
<glyph unicode="&#xfb;" d="M88 178q0 56 16 123l183 797h331l-165 -717q-19 -75 -19 -105q0 -38 23 -58.5t55 -20.5q59 0 86.5 49.5t44.5 126.5l166 725h330l-254 -1098h-328l25 115q-58 -61 -119.5 -98t-159.5 -37q-83 0 -149 43.5t-66 154.5zM381 1239l275 256h258l145 -256h-215l-76 127 l-137 -127h-250z" />
<glyph unicode="&#xfc;" d="M88 178q0 56 16 123l183 797h331l-165 -717q-19 -75 -19 -105q0 -38 23 -58.5t55 -20.5q59 0 86.5 49.5t44.5 126.5l166 725h330l-254 -1098h-328l25 115q-58 -61 -119.5 -98t-159.5 -37q-83 0 -149 43.5t-66 154.5zM377 1237l57 256h285l-60 -256h-282zM827 1237l58 256 h286l-57 -256h-287z" />
<glyph unicode="&#xfd;" horiz-adv-x="895" d="M-119 -399l45 241q117 0 159.5 6.5t58.5 35.5t18 104l33 1108h325l-90 -965q23 108 59 213l256 752h355l-445 -1014q-72 -165 -124.5 -255.5t-115.5 -140.5t-152.5 -68.5t-235.5 -18.5q-36 1 -66.5 1.5t-79.5 0.5zM506 1239l190 256h340l-282 -256h-248z" />
<glyph unicode="&#xfe;" d="M-51 -395l426 1841h330l-119 -490q63 79 122.5 121.5t159.5 42.5q97 0 159.5 -57t62.5 -164q0 -54 -17 -129l-106 -463q-18 -79 -45 -140.5t-65 -104t-91 -65t-119 -22.5q-92 0 -155.5 42t-81.5 108q-2 6 -2.5 9.5t-1 8t-3.5 4.5l-124 -542h-330zM440 279 q0 -43 25.5 -64.5t60.5 -21.5q87 0 113 114l98 428q17 74 17 92q0 41 -22.5 62.5t-61.5 21.5q-92 0 -113 -100l-104 -453q-13 -45 -13 -79z" />
<glyph unicode="&#xff;" horiz-adv-x="895" d="M-119 -399l45 241q117 0 159.5 6.5t58.5 35.5t18 104l33 1108h325l-90 -965q23 108 59 213l256 752h355l-445 -1014q-72 -165 -124.5 -255.5t-115.5 -140.5t-152.5 -68.5t-235.5 -18.5q-36 1 -66.5 1.5t-79.5 0.5zM299 1237l57 256h285l-60 -256h-282zM749 1237l58 256 h286l-57 -256h-287z" />
<glyph unicode="&#x152;" horiz-adv-x="1450" d="M106 244q0 44 15 131t43 212.5t57.5 243t46.5 185.5q48 180 90 272t113 138.5t197 46.5q110 0 167 -27.5t103 -71.5l16 72h717l-57 -250h-367l-76 -330h345l-58 -252h-346l-82 -362h397l-57 -252h-749l20 88q-49 -54 -101.5 -83.5t-150.5 -29.5q-283 0 -283 269zM463 293 q0 -47 27.5 -67.5t62.5 -20.5q45 0 72 17t46 55.5t33.5 90.5t47.5 193l106 463q19 97 19 123q0 47 -27.5 68.5t-73.5 21.5q-50 0 -78 -26t-49 -91t-61 -227q-18 -68 -49 -203t-53.5 -247.5t-22.5 -149.5z" />
<glyph unicode="&#x153;" horiz-adv-x="1536" d="M111 262q0 91 51 311.5t71 282.5q21 64 56 119.5t125 104t241 48.5q124 0 183.5 -34t93.5 -80q64 53 100 69q90 41 217 41q152 0 247 -66.5t95 -195.5q0 -46 -14 -117.5t-57 -261.5h-516q-43 -175 -43 -209q0 -35 23.5 -54t59.5 -19q65 0 89 36.5t43 118.5h331 q-44 -181 -114 -258q-33 -38 -79 -65t-113 -42.5t-150 -15.5q-94 0 -163.5 26t-111.5 93q-121 -121 -317 -121q-137 0 -236 62q-112 73 -112 227zM426 279q0 -41 26 -60.5t60 -19.5q42 0 66 18t33.5 39t17.5 55l102 434q12 66 12 84q0 76 -88 76q-55 0 -81.5 -38t-45.5 -122 l-94 -403q-8 -35 -8 -63zM1044 676h203q29 114 29 153q0 80 -84 80q-48 0 -75 -27t-39 -66.5t-34 -139.5z" />
<glyph unicode="&#x178;" horiz-adv-x="1067" d="M264 1446h342l49 -590l295 590h391l-600 -975l-108 -471h-348l116 500zM442 1538l60 256h284l-59 -256h-285zM895 1538l59 256h287l-61 -256h-285z" />
<glyph unicode="&#x2c6;" horiz-adv-x="512" d="M-82 1239l275 256h258l145 -256h-215l-76 127l-137 -127h-250z" />
<glyph unicode="&#x2dc;" horiz-adv-x="512" d="M-78 1260q6 56 23 108t63 91.5t129 39.5q58 0 133 -29q101 -36 140 -36t57.5 16.5t30.5 42.5h92q-18 -100 -61.5 -172t-159.5 -72q-57 0 -136 31q-115 41 -139 41q-33 0 -49.5 -16t-32.5 -45h-90z" />
<glyph unicode="&#x2000;" horiz-adv-x="917" />
<glyph unicode="&#x2001;" horiz-adv-x="1835" />
<glyph unicode="&#x2002;" horiz-adv-x="917" />
<glyph unicode="&#x2003;" horiz-adv-x="1835" />
<glyph unicode="&#x2004;" horiz-adv-x="611" />
<glyph unicode="&#x2005;" horiz-adv-x="458" />
<glyph unicode="&#x2006;" horiz-adv-x="305" />
<glyph unicode="&#x2007;" horiz-adv-x="305" />
<glyph unicode="&#x2008;" horiz-adv-x="229" />
<glyph unicode="&#x2009;" horiz-adv-x="367" />
<glyph unicode="&#x200a;" horiz-adv-x="101" />
<glyph unicode="&#x2010;" horiz-adv-x="682" d="M143 604l54 236h553l-54 -236h-553z" />
<glyph unicode="&#x2011;" horiz-adv-x="682" d="M143 604l54 236h553l-54 -236h-553z" />
<glyph unicode="&#x2012;" horiz-adv-x="682" d="M143 604l54 236h553l-54 -236h-553z" />
<glyph unicode="&#x2013;" horiz-adv-x="1067" d="M150 604l53 236h927l-53 -236h-927z" />
<glyph unicode="&#x2014;" horiz-adv-x="1194" d="M150 604l55 234h1050l-53 -234h-1052z" />
<glyph unicode="&#x2018;" horiz-adv-x="512" d="M229 817l74 316l248 313h131l-186 -313h114l-73 -316h-308z" />
<glyph unicode="&#x2019;" horiz-adv-x="512" d="M236 817l186 318h-113l72 313h309l-72 -313l-249 -318h-133z" />
<glyph unicode="&#x201a;" horiz-adv-x="512" d="M-35 -317l187 317h-115l74 313h309l-74 -313l-250 -317h-131z" />
<glyph unicode="&#x201c;" horiz-adv-x="895" d="M221 819l72 307l237 322h142l-183 -322h109l-72 -307h-305zM635 819l70 307l243 322h137l-186 -322h113l-72 -307h-305z" />
<glyph unicode="&#x201d;" horiz-adv-x="895" d="M229 819l187 318h-113l72 311h307l-72 -311l-245 -318h-136zM643 819l184 318h-110l71 311h306l-72 -311l-238 -318h-141z" />
<glyph unicode="&#x201e;" horiz-adv-x="895" d="M-51 -315l184 315h-113l72 313h305l-71 -313l-242 -315h-135zM362 -315l181 315h-109l74 313h303l-72 -313l-237 -315h-140z" />
<glyph unicode="&#x2022;" horiz-adv-x="682" d="M131 721q0 85 42 158t115 117t165 44q80 0 152.5 -38.5t116.5 -111.5t44 -169q0 -87 -39 -160.5t-110 -115.5t-162 -42q-74 0 -134 27t-102 73t-65 104t-23 114z" />
<glyph unicode="&#x2026;" horiz-adv-x="2048" d="M131 0l72 313h305l-72 -313h-305zM813 0l72 313h305l-72 -313h-305zM1495 0l72 313h307l-74 -313h-305z" />
<glyph unicode="&#x202f;" horiz-adv-x="367" />
<glyph unicode="&#x2039;" horiz-adv-x="469" d="M96 451l64 262l389 270l-70 -299l-172 -113l121 -120l-61 -256z" />
<glyph unicode="&#x203a;" horiz-adv-x="469" d="M63 195l68 299l172 114l-117 117l60 258l268 -258l-61 -260z" />
<glyph unicode="&#x205f;" horiz-adv-x="458" />
<glyph unicode="&#x2122;" horiz-adv-x="1409" d="M190 1309v137h586v-137h-205v-543h-172v543h-209zM831 766v680h218l155 -492l146 492h219v-680h-168l8 362q0 58 12 140q-8 -34 -13.5 -58.5t-14.5 -52.5l-115 -391h-154l-120 393q-9 19 -29 105q12 -90 14 -136l8 -362h-166z" />
<glyph unicode="&#x25fc;" horiz-adv-x="1100" d="M0 0v1100h1100v-1100h-1100z" />
</font>
</defs>
</svg>
